<?xml version="1.0" encoding="utf-8"?>
<!-- Generator: Adobe Illustrator 23.0.3, SVG Export Plug-In . SVG Version: 6.00 Build 0)  -->
<svg version="1.1" xmlns="http://www.w3.org/2000/svg" xmlns:xlink="http://www.w3.org/1999/xlink" x="0px" y="0px"
	 viewBox="0 0 1600 1200" style="enable-background:new 0 0 1600 1200;" xml:space="preserve">
<style type="text/css">
	.st0{fill:#FFFFFF;}
	.st1{fill:#102067;}
	.st2{opacity:0.36;fill:#FFFFFF;}
	.st3{opacity:0.6;fill:#FFFFFF;}
	.st4{opacity:0.57;fill:#FFFFFF;}
	.st5{fill:#D47293;}
</style>
<g id="character">
	<g id="leg_right">
		<path class="st0" d="M896.3,410.2c-7,8.8-4.8,10.7-16.4,33.4c-13.1,25.7-22.7,36.8-45.2,68.5c-22.1,31-39,54.8-58,88.2
			c-11.3,19.9-18.1,34.1-31.7,62.5c-12.2,25.6-17.9,39.4-21.4,57.8c-2.8,14.3-3.1,25.3-3.3,32.8c-0.7,25.2,3.2,45.4,11.1,84.8
			c2.8,14,5.1,24.3,5.6,26.6c4.4,19.3,10.7,44.3,19.7,73c2.5,8.1,4.7,14.8,6.3,19.3c2.2,2.1,5.6,4.8,10.4,6.6
			c10.5,4.2,20.1,1.4,23.3,0.3c3.2,8.5,6.4,17,9.6,25.5c-2.3,1.1-5.5,3.1-8.2,6.4c-3.6,4.5-4.4,9.2-4.9,11.5
			c-1.6,7.3-6.6,14.1-16.5,27.8c-7.8,10.7-10.9,12.4-15.9,21.8c-2.5,4.6-4.1,8.6-5,11.3c-7.4,5-11,10.1-13,14
			c-1.1,2.2-2.6,5.8-5.8,11.1c-1.6,2.7-3.1,4.9-4.1,6.3c1.9,2.4,5.3,5.8,10.4,8.2c6.9,3.1,13.6,2.8,20.3,1.5c7.2-1.3,18-4.2,39-16.3
			c6.6-3.8,20.2-12,36.5-24.8c7-5.5,12.6-10.4,16.6-14c3.5-0.9,8.1-2.6,13.1-5.7c7.7-4.9,12.2-11.1,14.4-14.8
			c0.3-3.6,0.3-9.1-1.8-15.1c-2-5.7-4.1-6.9-7.6-13.8c-3.8-7.5-5.3-14.2-6.2-18.3c-1.3-5.5-2-11.1-5.3-19.1
			c-1.4-3.3-2.6-5.5-4.5-5.8c-3.4-0.4-6.5,5.9-6.7,6.2c-2.7-8.6-5.3-17.2-8-25.8c1.8-1.7,4.1-4.2,6.1-7.7c3.2-5.7,4-11.1,4.2-14.2
			c-4.1-38.3-11.3-66.9-17.4-86.7c-3.2-10.4-11.3-35-9.8-64.1c0.5-10.1,2-17.5,3.6-23.1c2.4-8.9,6.2-18,17.1-35.5
			c8.6-13.7,14.6-21.5,24.3-34.7c9.6-13.1,18.6-26.5,28-39.7c26.5-37.5,39.8-56.3,42.1-59.6c20-29.4,30-44.1,36.8-57.1
			c27.5-52.7,35.5-107.3,35.6-107.3c1.2,0.3-1.2,4.7-0.9,3.6l0,0c1-25.2,0-27.2,0-27.2C1003,369.8,928.1,370,896.3,410.2z"/>
		<g>
			<g>
				<path class="st1" d="M890.3,418c-14.1,34.5-36.1,64.8-57.9,94.7c-22.4,30.8-43.6,62.2-61.9,95.6c-9.3,16.9-17.9,34.1-25.9,51.7
					c-7.8,17.1-15.6,34.5-20.6,52.6c-10.5,37.7-3.1,77.6,3.8,115.3c8.2,44.5,19.7,88.4,34.2,131.2c0.6,1.8,3.5,1,2.9-0.8
					c-12.6-37.4-23-75.6-30.9-114.3c-4.1-20.1-7.8-40.4-10.2-60.8c-2.4-19.9-3.3-40.2,0.7-60c3.9-19.1,11.8-37.3,19.7-55.1
					c7.7-17.3,16-34.4,24.9-51.1c17.9-33.4,38.4-65.1,60.7-95.8c23.6-32.6,48-65,63.4-102.5C893.9,417,891,416.2,890.3,418
					L890.3,418z"/>
			</g>
		</g>
		<g>
			<g>
				<path class="st1" d="M943.7,570.2c-30.5,43.3-61.2,86.5-91.6,129.9c-12.8,18.3-24.3,37.1-26.5,59.8c-2.4,24.6,3.8,49.3,8.6,73.3
					c5.8,29.2,11.6,58.3,17.4,87.5c0.4,1.9,3.3,1.1,2.9-0.8c-5-25.3-10.1-50.6-15.1-75.8c-4.8-24-11.2-48.5-11.3-73.1
					c0-12.6,2.1-25,7-36.6c4.5-10.7,10.9-20.4,17.5-29.9c14.2-20.5,28.7-40.7,43.1-61.1c16.8-23.9,33.7-47.8,50.5-71.7
					C947.4,570.1,944.8,568.6,943.7,570.2L943.7,570.2z"/>
			</g>
		</g>
		<g>
			<g>
				<path class="st1" d="M763.6,960.1c6.6,6.3,15.9,6.4,24.4,6.1c10.7-0.4,21.6-2,31.6-5.9c17.1-6.6,31.8-20.2,35.7-38.6
					c0.4-1.9-2.5-2.7-2.9-0.8c-3.7,17.4-17.4,30.3-33.6,36.6c-8.5,3.3-17.5,4.9-26.5,5.5c-8.8,0.6-19.8,1.6-26.6-5
					C764.3,956.6,762.2,958.8,763.6,960.1L763.6,960.1z"/>
			</g>
		</g>
		<g>
			<g>
				<path class="st1" d="M753.9,925.7c4.9,2,10.4,2,15.5,2.2c5.7,0.2,11.4,0,17-0.8c10.9-1.4,21.2-4.9,30.9-10
					c1.7-0.9,0.2-3.5-1.5-2.6c-9.3,5-19.3,8.3-29.7,9.7c-9.5,1.2-22.2,2.4-31.3-1.3C752.9,922,752.1,924.9,753.9,925.7L753.9,925.7z
					"/>
			</g>
		</g>
		<g>
			<g>
				<path class="st1" d="M814.1,907.1c0.6,5.3,1.5,10.5,3,15.7c0.8,2.7,1.5,6.9,4.3,8.5c6.7,3.8,7.2-9.5,7.1-13
					c-0.1-4.3-0.9-8.6-2.6-12.6c-1.2-2.9-3-7.6-6.1-9.1c-7.5-3.5-6.7,10.6-6.1,14c0.4,1.9,3.3,1.1,2.9-0.8
					c-0.5-2.3-2.3-12.7,4.1-7.8c1.6,1.2,2.6,4.9,3.1,6.7c1.3,3.8,1.8,7.9,1.6,11.9c-0.1,1-0.2,6.8-1.3,7.3c-2.2,1-3.6-4-3.9-5.1
					c-1.6-5.1-2.6-10.4-3.1-15.8C816.9,905.2,813.9,905.2,814.1,907.1L814.1,907.1z"/>
			</g>
		</g>
		<g>
			<g>
				<path class="st1" d="M826.1,912.1c7.9-1.9,14.9-6.1,20.3-12.2c1.3-1.4-0.8-3.6-2.1-2.1c-5.1,5.7-11.5,9.6-19,11.4
					C823.5,909.7,824.3,912.5,826.1,912.1L826.1,912.1z"/>
			</g>
		</g>
		<g>
			<g>
				<path class="st1" d="M794.4,966.6c3.9,7.6,7.4,15.4,10.4,23.4c0.7,1.8,3.6,1,2.9-0.8c-3.1-8.2-6.7-16.3-10.7-24.1
					C796.1,963.3,793.5,964.9,794.4,966.6L794.4,966.6z"/>
			</g>
		</g>
		<g>
			<g>
				<path class="st1" d="M842.3,943c2.5,8.7,4.9,17.5,7.4,26.2c0.5,1.9,3.4,1.1,2.9-0.8c-2.5-8.7-4.9-17.5-7.4-26.2
					C844.7,940.4,841.8,941.2,842.3,943L842.3,943z"/>
			</g>
		</g>
		<g>
			<g>
				<path class="st1" d="M852.3,966.4c3.7-4.9,8.6,0.8,9.6,4.4c0.9,3.3,0.7,6.8,1.1,10.2c0.6,5.2,2.5,10.1,4.8,14.7
					c5.9,11.9,15.8,23.4,13.7,37.6c-0.3,1.9,2.6,2.7,2.9,0.8c2.7-18.9-13-31.8-17.5-48.8c-1.8-6.8,0.3-16.4-5.7-21.6
					c-3.6-3.1-8.7-2.7-11.5,1.1C848.6,966.5,851.2,968,852.3,966.4L852.3,966.4z"/>
			</g>
		</g>
		<g>
			<g>
				<path class="st1" d="M806.7,986.9c-10.8,4-13,15.2-16.7,24.9c-4.5,11.8-13.8,20.3-21.5,29.9c-3.3,4.1-6.3,8.4-8.6,13.2
					c-2.8,5.8-4.6,12.2-8.8,17.3c-7,8.4-18.4,13.6-18.9,25.9c-0.1,1.9,2.9,1.9,3,0c0.4-12.3,14.2-17.6,20.2-26.8
					c3.1-4.6,4.7-10,7-14.9c2.4-5,5.6-9.5,9.1-13.8c6-7.4,13-14.2,17.8-22.5c5.7-9.8,6.1-25.9,18.1-30.4
					C809.3,989.1,808.5,986.2,806.7,986.9L806.7,986.9z"/>
			</g>
		</g>
		<g>
			<g>
				<path class="st1" d="M731.4,1100.5c7.8,10.6,21.2,12.8,33.4,10.2c15.6-3.3,30.9-11.8,44.5-19.8c13.4-7.9,26-17.1,37.6-27.5
					c3.4-3,6.5-6.8,11-8.3c3.1-1,6-1.9,8.9-3.6c6.4-3.7,11.4-9.4,16.2-14.9c1.3-1.4-0.8-3.6-2.1-2.1c-4.6,5.3-9.4,10.8-15.6,14.4
					c-3.3,1.9-6.8,2.5-10.2,3.9c-2.3,1-4,2.7-5.9,4.3c-10.7,9.7-21.9,18.7-34.2,26.6c-12.2,7.8-25.2,14.7-38.7,20.1
					c-13.6,5.4-32.3,8.9-42.4-4.9C732.9,1097.4,730.3,1098.9,731.4,1100.5L731.4,1100.5z"/>
			</g>
		</g>
		<g>
			<g>
				<path class="st1" d="M806.8,991.1c3.7,0.4,7.2,1.6,10.3,3.8c2.3,1.6,3.9,4.4,6.4,5.6c4.2,2.1,8.7-0.7,12-3.2
					c4.2-3.3,7.6-7.6,9.7-12.5c2.4-5.4,2.4-12,6.9-16.3c1.4-1.3-0.7-3.4-2.1-2.1c-3.2,3-4.4,6.8-5.5,11c-1.6,5.9-4.1,11.2-8.5,15.5
					c-1.7,1.7-5.4,5.1-8,5.2c-3.5,0-5.7-3-8.1-4.9c-3.8-3-8.2-4.5-13-5.1C804.9,987.8,804.9,990.8,806.8,991.1L806.8,991.1z"/>
			</g>
		</g>
		<g>
			<g>
				<path class="st1" d="M796.3,1018.4c-5.2-0.3-10.3-1.7-14.9-4.2c-2.7-1.5-15.2-9.7-10.1-14c1.4-1.2,4.7-0.1,6.1,0.6
					c0.9,0.5,1.7,1.1,2.4,1.6c2.2,1.6,4.2,3.3,6.2,5.1c3.7,3.4,7.1,7.1,10.2,11.1c0.5,0.6,1.6,0.5,2.1,0c2.4-2.6,5-5.1,8.1-6.9
					c2.2-1.3,10.1-4.8,12.4-1.8c0.1,1.8,0.3,3.6,0.4,5.4c-1,0.5-2.1,0.8-3.3,1c-2,0.4-4.2,0.6-6.2,0.8c-3.6,0.5-7.2,0.9-10.8,1.4
					c-1.9,0.2-1.9,3.2,0,3c4.5-0.6,30.3-0.6,24.5-11.4c-2.1-3.8-7.3-4.5-11.1-3.9c-6.5,1-11.8,5.5-16.1,10.2c0.7,0,1.4,0,2.1,0
					c-3.8-4.8-24.1-29.4-30.8-16.6c-2.8,5.3,4.3,11.1,7.9,13.8c6.1,4.7,13.3,7.1,20.9,7.6C798.2,1021.5,798.2,1018.5,796.3,1018.4
					L796.3,1018.4z"/>
			</g>
		</g>
		<g>
			<g>
				<path class="st1" d="M781.1,1031.1c4,0.4,7.8-0.8,11.8-0.6c4.8,0.3,9.1,2.2,12.9,5c1.5,1.2,3-1.4,1.5-2.6
					c-3.7-2.8-7.8-4.6-12.4-5.2c-4.7-0.6-9.2,0.8-13.9,0.4C779.1,1027.9,779.1,1030.9,781.1,1031.1L781.1,1031.1z"/>
			</g>
		</g>
		<g>
			<g>
				<path class="st1" d="M775.6,1040c9.9-2.3,19.8-3.1,29.9-2.4c1.9,0.1,1.9-2.9,0-3c-10.4-0.7-20.6,0.2-30.7,2.6
					C772.9,1037.6,773.7,1040.5,775.6,1040L775.6,1040z"/>
			</g>
		</g>
		<g>
			<g>
				<path class="st1" d="M773.4,1041c7.5,2.1,14.1,5.8,19.8,11.2c1.4,1.3,3.5-0.8,2.1-2.1c-6-5.7-13.1-9.7-21.1-12
					C772.4,1037.6,771.6,1040.5,773.4,1041L773.4,1041z"/>
			</g>
		</g>
		<g>
			<g>
				<path class="st1" d="M765.4,1052.4c9.4-0.3,18.7,0.3,28,1.7c1.9,0.3,2.7-2.6,0.8-2.9c-9.5-1.5-19.1-2.1-28.8-1.8
					C763.4,1049.5,763.4,1052.5,765.4,1052.4L765.4,1052.4z"/>
			</g>
		</g>
		<g>
			<g>
				<path class="st1" d="M776.1,1036.7c8.4,1.9,15.8,5.9,21.9,11.9c1.4,1.3,3.5-0.8,2.1-2.1c-6.5-6.3-14.4-10.7-23.3-12.7
					C775.1,1033.4,774.3,1036.3,776.1,1036.7L776.1,1036.7z"/>
			</g>
		</g>
		<g>
			<g>
				<path class="st1" d="M762.2,1054c7.8,2.4,14.8,6.2,21.2,11.2c1.5,1.2,3.6-0.9,2.1-2.1c-6.7-5.4-14.2-9.4-22.5-12
					C761.2,1050.6,760.4,1053.5,762.2,1054L762.2,1054z"/>
			</g>
		</g>
		<g>
			<g>
				<path class="st1" d="M756.8,1065.2c9-0.7,17.9,0,26.6,2.3c1.9,0.5,2.7-2.4,0.8-2.9c-9-2.4-18.1-3.2-27.4-2.5
					C754.9,1062.4,754.9,1065.4,756.8,1065.2L756.8,1065.2z"/>
			</g>
		</g>
		<g>
			<g>
				<path class="st1" d="M880.2,1014.1c-8.2-0.1-15.8,9.8-19,16.5c-0.9,1.8-1.3,3.7-2,5.6c-1.4,3.9-3.1,5.3-6.6,7.2
					c-4.5,2.5-8.1,6-11.6,9.7c-1.3,1.4,0.8,3.5,2.1,2.1c3.4-3.5,6.7-6.9,11-9.2c2.9-1.6,5.3-2.8,6.9-5.9c2.1-4.3,2.7-8.7,5.6-12.6
					c3.1-4.2,7.9-10.5,13.5-10.4C882.2,1017.2,882.2,1014.2,880.2,1014.1L880.2,1014.1z"/>
			</g>
		</g>
		<g>
			<g>
				<path class="st1" d="M738.1,1094.2c1.9-3.8,11.8,1.6,14.1,3.1c2.3,1.5,4,3.4,6.9,3.6c5.8,0.6,13.2-1.4,18.2-4.3
					c1.7-1,0.2-3.6-1.5-2.6c-4.1,2.4-9.4,3.7-14.1,3.8c-4.9,0.1-7.4-3.1-11.6-5.1c-3.7-1.8-12.1-5.1-14.7,0
					C734.6,1094.4,737.2,1095.9,738.1,1094.2L738.1,1094.2z"/>
			</g>
		</g>
		<g>
			<g>
				<path class="st1" d="M746.1,1088.3c1.9,0,1.9-3,0-3C744.2,1085.3,744.2,1088.3,746.1,1088.3L746.1,1088.3z"/>
			</g>
		</g>
		<g>
			<g>
				<path class="st1" d="M752.2,1082.3c1.9,0,1.9-3,0-3C750.3,1079.3,750.3,1082.3,752.2,1082.3L752.2,1082.3z"/>
			</g>
		</g>
		<g>
			<g>
				<path class="st1" d="M758.1,1077.4c0-0.2,0-0.4,0-0.6c0-0.8-0.7-1.5-1.5-1.5c-0.8,0-1.5,0.7-1.5,1.5c0,0.2,0,0.4,0,0.6
					c0,0.8,0.7,1.5,1.5,1.5C757.4,1078.9,758.1,1078.3,758.1,1077.4L758.1,1077.4z"/>
			</g>
		</g>
		<g>
			<g>
				<path class="st1" d="M762.1,1072.3c1.9,0,1.9-3,0-3C760.2,1069.3,760.2,1072.3,762.1,1072.3L762.1,1072.3z"/>
			</g>
		</g>
		<g>
			<g>
				<path class="st1" d="M752.2,1091.6c0.4,0,0.7,0,1.1,0c0.8,0,1.5-0.7,1.5-1.5c0-0.8-0.7-1.5-1.5-1.5c-0.4,0-0.7,0-1.1,0
					c-0.8,0-1.5,0.7-1.5,1.5C750.7,1090.9,751.4,1091.6,752.2,1091.6L752.2,1091.6z"/>
			</g>
		</g>
		<g>
			<g>
				<path class="st1" d="M761.5,1085.6c0.4-0.4,0.8-0.7,1.1-1.1c0.6-0.6,0.6-1.6,0-2.1c-0.6-0.6-1.5-0.6-2.1,0
					c-0.4,0.4-0.8,0.7-1.1,1.1c-0.6,0.6-0.6,1.6,0,2.1C759.9,1086.2,760.9,1086.2,761.5,1085.6L761.5,1085.6z"/>
			</g>
		</g>
		<g>
			<g>
				<path class="st1" d="M765.4,1080c1.9,0,1.9-3,0-3C763.5,1077,763.5,1080,765.4,1080L765.4,1080z"/>
			</g>
		</g>
		<g>
			<g>
				<path class="st1" d="M771,1074c1.9,0,1.9-3,0-3C769,1071,769,1074,771,1074L771,1074z"/>
			</g>
		</g>
		<g>
			<g>
				<path class="st1" d="M759.9,1096.1c0.2,0,0.4,0,0.6,0c0.8,0,1.5-0.7,1.5-1.5c0-0.8-0.7-1.5-1.5-1.5c-0.2,0-0.4,0-0.6,0
					c-0.8,0-1.5,0.7-1.5,1.5C758.5,1095.4,759.1,1096.1,759.9,1096.1L759.9,1096.1z"/>
			</g>
		</g>
		<g>
			<g>
				<path class="st1" d="M768.8,1089.4c1.9,0,1.9-3,0-3C766.8,1086.4,766.8,1089.4,768.8,1089.4L768.8,1089.4z"/>
			</g>
		</g>
		<g>
			<g>
				<path class="st1" d="M774.8,1082.8c1.9,0,1.9-3,0-3C772.9,1079.8,772.9,1082.8,774.8,1082.8L774.8,1082.8z"/>
			</g>
		</g>
		<g>
			<g>
				<path class="st1" d="M779.8,1075.1c1.9,0,1.9-3,0-3C777.9,1072.1,777.9,1075.1,779.8,1075.1L779.8,1075.1z"/>
			</g>
		</g>
		<g>
			<g>
				<path class="st1" d="M771.5,1094.9c1.9,0,1.9-3,0-3C769.6,1091.9,769.6,1094.9,771.5,1094.9L771.5,1094.9z"/>
			</g>
		</g>
		<g>
			<g>
				<path class="st1" d="M780.3,1089.4c1.9,0,1.9-3,0-3C778.4,1086.4,778.4,1089.4,780.3,1089.4L780.3,1089.4z"/>
			</g>
		</g>
		<g>
			<g>
				<path class="st1" d="M789.7,1084.5c1.9,0,1.9-3,0-3C787.8,1081.5,787.8,1084.5,789.7,1084.5L789.7,1084.5z"/>
			</g>
		</g>
		<g>
			<g>
				<path class="st1" d="M798.6,1078.4c1.9,0,1.9-3,0-3C796.6,1075.4,796.6,1078.4,798.6,1078.4L798.6,1078.4z"/>
			</g>
		</g>
		<g>
			<g>
				<path class="st1" d="M805.2,1074c1.9,0,1.9-3,0-3C803.3,1071,803.2,1074,805.2,1074L805.2,1074z"/>
			</g>
		</g>
		<g>
			<g>
				<path class="st1" d="M816.8,1067.4c1.9,0,1.9-3,0-3C814.8,1064.4,814.8,1067.4,816.8,1067.4L816.8,1067.4z"/>
			</g>
		</g>
		<g>
			<g>
				<path class="st1" d="M826.2,1059.6c1.9,0,1.9-3,0-3C824.2,1056.6,824.2,1059.6,826.2,1059.6L826.2,1059.6z"/>
			</g>
		</g>
		<g>
			<g>
				<path class="st1" d="M833.3,1054.1c1.9,0,1.9-3,0-3C831.4,1051.1,831.4,1054.1,833.3,1054.1L833.3,1054.1z"/>
			</g>
		</g>
		<g>
			<g>
				<path class="st1" d="M842.2,1046.9c1.9,0,1.9-3,0-3C840.2,1043.9,840.2,1046.9,842.2,1046.9L842.2,1046.9z"/>
			</g>
		</g>
		<g>
			<g>
				<path class="st1" d="M850.4,1040.3c1.9,0,1.9-3,0-3C848.5,1037.3,848.5,1040.3,850.4,1040.3L850.4,1040.3z"/>
			</g>
		</g>
		<g>
			<g>
				<path class="st1" d="M855.4,1033.1c1.9,0,1.9-3,0-3C853.5,1030.1,853.5,1033.1,855.4,1033.1L855.4,1033.1z"/>
			</g>
		</g>
		<g>
			<g>
				<path class="st1" d="M861.5,1023.8c1.9,0,1.9-3,0-3C859.5,1020.8,859.5,1023.8,861.5,1023.8L861.5,1023.8z"/>
			</g>
		</g>
		<g>
			<g>
				<path class="st1" d="M868.6,1016.6c1.9,0,1.9-3,0-3C866.7,1013.6,866.7,1016.6,868.6,1016.6L868.6,1016.6z"/>
			</g>
		</g>
		<g>
			<g>
				<path class="st1" d="M868.6,1008.9c1.9,0,1.9-3,0-3C866.7,1005.9,866.7,1008.9,868.6,1008.9L868.6,1008.9z"/>
			</g>
		</g>
		<g>
			<g>
				<path class="st1" d="M864.8,999.5c1.9,0,1.9-3,0-3C862.9,996.5,862.9,999.5,864.8,999.5L864.8,999.5z"/>
			</g>
		</g>
		<g>
			<g>
				<path class="st1" d="M861.5,989c1.9,0,1.9-3,0-3C859.5,986,859.5,989,861.5,989L861.5,989z"/>
			</g>
		</g>
		<g>
			<g>
				<path class="st1" d="M858.7,979.1c1.9,0,1.9-3,0-3C856.8,976.1,856.8,979.1,858.7,979.1L858.7,979.1z"/>
			</g>
		</g>
		<g>
			<g>
				<path class="st1" d="M855.4,973.5c1.9,0,1.9-3,0-3C853.5,970.5,853.5,973.5,855.4,973.5L855.4,973.5z"/>
			</g>
		</g>
		<g>
			<g>
				<path class="st1" d="M852.1,982.4c1.9,0,1.9-3,0-3C850.2,979.4,850.2,982.4,852.1,982.4L852.1,982.4z"/>
			</g>
		</g>
		<g>
			<g>
				<path class="st1" d="M848.8,991.2c1.9,0,1.9-3,0-3C846.9,988.2,846.8,991.2,848.8,991.2L848.8,991.2z"/>
			</g>
		</g>
		<g>
			<g>
				<path class="st1" d="M842.2,1000c1.9,0,1.9-3,0-3C840.2,997,840.2,1000,842.2,1000L842.2,1000z"/>
			</g>
		</g>
		<g>
			<g>
				<path class="st1" d="M832.2,1005c1.9,0,1.9-3,0-3C830.3,1002,830.3,1005,832.2,1005L832.2,1005z"/>
			</g>
		</g>
		<g>
			<g>
				<path class="st1" d="M831.1,1013.3c1.9,0,1.9-3,0-3C829.2,1010.3,829.2,1013.3,831.1,1013.3L831.1,1013.3z"/>
			</g>
		</g>
		<g>
			<g>
				<path class="st1" d="M825,1023.8c1.9,0,1.9-3,0-3C823.1,1020.8,823.1,1023.8,825,1023.8L825,1023.8z"/>
			</g>
		</g>
		<g>
			<g>
				<path class="st1" d="M819.5,1034.2c1.9,0,1.9-3,0-3C817.6,1031.2,817.6,1034.2,819.5,1034.2L819.5,1034.2z"/>
			</g>
		</g>
		<g>
			<g>
				<path class="st1" d="M814.6,1043.6c1.9,0,1.9-3,0-3C812.6,1040.6,812.6,1043.6,814.6,1043.6L814.6,1043.6z"/>
			</g>
		</g>
		<g>
			<g>
				<path class="st1" d="M807.9,1051.9c1.9,0,1.9-3,0-3C806,1048.9,806,1051.9,807.9,1051.9L807.9,1051.9z"/>
			</g>
		</g>
		<g>
			<g>
				<path class="st1" d="M801.3,1060.7c1.9,0,1.9-3,0-3C799.4,1057.7,799.4,1060.7,801.3,1060.7L801.3,1060.7z"/>
			</g>
		</g>
		<g>
			<g>
				<path class="st1" d="M793.6,1067.9c1.9,0,1.9-3,0-3C791.7,1064.9,791.7,1067.9,793.6,1067.9L793.6,1067.9z"/>
			</g>
		</g>
		<g>
			<g>
				<path class="st1" d="M787.5,1074.5c1.9,0,1.9-3,0-3C785.6,1071.5,785.6,1074.5,787.5,1074.5L787.5,1074.5z"/>
			</g>
		</g>
		<g>
			<g>
				<path class="st1" d="M799.7,1070.7c1.9,0,1.9-3,0-3C797.7,1067.7,797.7,1070.7,799.7,1070.7L799.7,1070.7z"/>
			</g>
		</g>
		<g>
			<g>
				<path class="st1" d="M809,1063.5c1.9,0,1.9-3,0-3C807.1,1060.5,807.1,1063.5,809,1063.5L809,1063.5z"/>
			</g>
		</g>
		<g>
			<g>
				<path class="st1" d="M816.2,1057.4c1.9,0,1.9-3,0-3C814.3,1054.4,814.3,1057.4,816.2,1057.4L816.2,1057.4z"/>
			</g>
		</g>
		<g>
			<g>
				<path class="st1" d="M818.4,1049.1c1.9,0,1.9-3,0-3C816.5,1046.1,816.5,1049.1,818.4,1049.1L818.4,1049.1z"/>
			</g>
		</g>
		<g>
			<g>
				<path class="st1" d="M823.9,1054.7c1.9,0,1.9-3,0-3C822,1051.7,822,1054.7,823.9,1054.7L823.9,1054.7z"/>
			</g>
		</g>
		<g>
			<g>
				<path class="st1" d="M821.7,1041.4c1.9,0,1.9-3,0-3C819.8,1038.4,819.8,1041.4,821.7,1041.4L821.7,1041.4z"/>
			</g>
		</g>
		<g>
			<g>
				<path class="st1" d="M828.4,1047.5c1.9,0,1.9-3,0-3C826.4,1044.5,826.4,1047.5,828.4,1047.5L828.4,1047.5z"/>
			</g>
		</g>
		<g>
			<g>
				<path class="st1" d="M827.3,1035.3c1.9,0,1.9-3,0-3C825.3,1032.3,825.3,1035.3,827.3,1035.3L827.3,1035.3z"/>
			</g>
		</g>
		<g>
			<g>
				<path class="st1" d="M833.9,1042.5c1.9,0,1.9-3,0-3C831.9,1039.5,831.9,1042.5,833.9,1042.5L833.9,1042.5z"/>
			</g>
		</g>
		<g>
			<g>
				<path class="st1" d="M831.1,1027.6c1.9,0,1.9-3,0-3C829.2,1024.6,829.2,1027.6,831.1,1027.6L831.1,1027.6z"/>
			</g>
		</g>
		<g>
			<g>
				<path class="st1" d="M837.7,1034.2c1.9,0,1.9-3,0-3C835.8,1031.2,835.8,1034.2,837.7,1034.2L837.7,1034.2z"/>
			</g>
		</g>
		<g>
			<g>
				<path class="st1" d="M844.4,1037.6c1.9,0,1.9-3,0-3C842.4,1034.6,842.4,1037.6,844.4,1037.6L844.4,1037.6z"/>
			</g>
		</g>
		<g>
			<g>
				<path class="st1" d="M834.4,1022.1c1.9,0,1.9-3,0-3C832.5,1019.1,832.5,1022.1,834.4,1022.1L834.4,1022.1z"/>
			</g>
		</g>
		<g>
			<g>
				<path class="st1" d="M843.8,1027.1c1.9,0,1.9-3,0-3C841.9,1024.1,841.9,1027.1,843.8,1027.1L843.8,1027.1z"/>
			</g>
		</g>
		<g>
			<g>
				<path class="st1" d="M838.3,1014.9c1.9,0,1.9-3,0-3C836.4,1011.9,836.4,1014.9,838.3,1014.9L838.3,1014.9z"/>
			</g>
		</g>
		<g>
			<g>
				<path class="st1" d="M846.6,1019.9c1.9,0,1.9-3,0-3C844.6,1016.9,844.6,1019.9,846.6,1019.9L846.6,1019.9z"/>
			</g>
		</g>
		<g>
			<g>
				<path class="st1" d="M853.7,1023.2c1.9,0,1.9-3,0-3C851.8,1020.2,851.8,1023.2,853.7,1023.2L853.7,1023.2z"/>
			</g>
		</g>
		<g>
			<g>
				<path class="st1" d="M840.5,1008.3c1.9,0,1.9-3,0-3C838.6,1005.3,838.6,1008.3,840.5,1008.3L840.5,1008.3z"/>
			</g>
		</g>
		<g>
			<g>
				<path class="st1" d="M849.9,1011.6c1.9,0,1.9-3,0-3C848,1008.6,848,1011.6,849.9,1011.6L849.9,1011.6z"/>
			</g>
		</g>
		<g>
			<g>
				<path class="st1" d="M859.3,1016.6c1.9,0,1.9-3,0-3C857.3,1013.6,857.3,1016.6,859.3,1016.6L859.3,1016.6z"/>
			</g>
		</g>
		<g>
			<g>
				<path class="st1" d="M853.2,1005.5c1.9,0,1.9-3,0-3C851.3,1002.5,851.3,1005.5,853.2,1005.5L853.2,1005.5z"/>
			</g>
		</g>
		<g>
			<g>
				<path class="st1" d="M862,1010.5c1.9,0,1.9-3,0-3C860.1,1007.5,860.1,1010.5,862,1010.5L862,1010.5z"/>
			</g>
		</g>
		<g>
			<g>
				<path class="st1" d="M859.8,1001.1c1.9,0,1.9-3,0-3C857.9,998.1,857.9,1001.1,859.8,1001.1L859.8,1001.1z"/>
			</g>
		</g>
		<g>
			<g>
				<path class="st1" d="M849.9,1001.7c1.9,0,1.9-3,0-3C848,998.7,848,1001.7,849.9,1001.7L849.9,1001.7z"/>
			</g>
		</g>
		<g>
			<g>
				<path class="st1" d="M856,994c1.9,0,1.9-3,0-3C854,991,854,994,856,994L856,994z"/>
			</g>
		</g>
		<g>
			<g>
				<path class="st1" d="M923.8,416.7c-6.2,13.4-11.3,27.2-14.8,41.6c-0.9,3.6-1.8,7.3-2.4,10.9c-0.3,1.6-0.7,3.5,0.2,5.1
					c2.6,4.2,8.2-1.2,10.5-2.7c1.6-1.1,0.1-3.7-1.5-2.6c-1.2,0.8-5.2,4.6-6.5,2.7c-0.7-1,1.3-6.7,1.6-8c1.1-5.2,2.5-10.3,4-15.3
					c3.1-10.3,7-20.3,11.5-30.1C927.2,416.5,924.6,415,923.8,416.7L923.8,416.7z"/>
			</g>
		</g>
		<g>
			<g>
				<path class="st1" d="M868,470.2c8.8,0.3,15.6-6.6,20.9-12.9c6-7.2,10.6-15.3,13.7-24.1c0.7-1.8-2.2-2.6-2.9-0.8
					c-2.7,7.6-6.5,14.7-11.5,21c-4.9,6.2-11.6,14-20.2,13.8C866.1,467.1,866.1,470.1,868,470.2L868,470.2z"/>
			</g>
		</g>
	</g>
	<g id="leg_left">
		<path class="st0" d="M1031.5,432.1c0.3,9.1-2.5,8.6-3.7,23.4c-1.8,21.2,3.5,26,4.2,50.5c0.6,17.4-1.6,31-3.1,39.9
			c-2,12-4,18.7-9,36.3c-6.4,22.8-12.3,45.8-18.5,68.6c0,0-4.4,16.2-13.1,48.6c-5.5,20.4-11,40.9-16.6,61.3c1,1,4.9,5.3,5,11.9
			c0.1,4.4-1.6,7.6-2.5,9c8.5,15.1,17,26.2,22.9,33.3c20.9,25.1,34.6,36.9,34.6,36.9c3,2.7,10.5,9.1,16.3,20.1
			c2,3.8,3.3,7.1,4.1,9.3c9,6,18,11.9,27,17.9c1.6-4.5,4.2-9.5,8-10c2.8-0.3,4.1,2,8.9,4.4c4.1,2.1,7.8,2.5,15.2,3.3
			c10.5,1.2,11.4-0.2,17,0.9c4.1,0.8,10.1,2.9,16.8,8.7c1.7,3.9,4.7,12.6,3.2,23.5c-1,7.1-3.6,12.5-5.5,15.8
			c1.1,5.1,2.4,12.6,2.9,21.8c0.5,9.9-0.4,13.6-1.4,28c-2,29.2,0.5,30.9-3.2,42.4c-3.1,9.6-7.3,16.1-11.1,21.9
			c-5.4,8.3-8.5,10.6-10.8,12c-1.5,0.9-8.1,4.9-15.8,3.6c-10.9-1.8-16.7-12.8-19.9-18.7c-4.4-8.3-5.2-15.2-6.6-27.3
			c-1.9-16.2,0.4-16.8-1.6-32.9c-1.3-10.4-2.6-13-3.8-24.8c-0.9-8.5-1-15.5-1-20.2c-1.6-1-11.1-6.9-12.7-7.9
			c-4.7-2.9-18-11.2-22.8-14.1c-2.1,3.2-4.8,6.8-8.5,10.4c-6,6-12.2,9.7-16.8,12c-26-20.8-46-40.8-60.8-57
			c-14.7-16.2-24.6-29-32.4-39.1c-24.3-31.7-32-47.7-34.7-53.3c-9-19.2-11-31-11.6-35.3c-0.7-4.6-1.9-15.2,0.3-33.9
			c2.3-19.1,6.5-32.8,11.6-48.7c8.1-25.6,22.2-70,27.5-87.2c5.7-18.4,10.1-33.5,12.8-43.1c0.3-3.6,0.3-9.5-2.1-16.1
			c-3.1-8.4-9.6-13.7-16.8-19.9c-2.7-2.3-5.1-4.1-6.8-5.3c8-7.1,19.1-18.6,28-35.2c13-23.9,9-35.2,21.4-57.4
			c6-10.9,23.1-41.7,45.9-40.5C1013.1,381,1030.8,409.5,1031.5,432.1z"/>
		<g>
			<g>
				<path class="st1" d="M1030,431.7c-6.4,19.7-3.1,40.2-0.9,60.2c1.2,10.5,2,21.1,1.3,31.7c-0.8,11.3-2.9,22.5-5.6,33.5
					c-10.4,43.3-23,86.1-34.7,129.1c-6.7,24.7-13.3,49.4-20,74.1c-0.1,0.5,0,1.1,0.4,1.5c5.1,5,5.9,12.6,2.1,18.6
					c-1,1.6,1.6,3.1,2.6,1.5c4.2-6.6,3.2-13.5-0.6-20c-1.5-2.6-0.9-3.4-0.1-6.5c0.7-2.6,1.4-5.1,2.1-7.7c1.7-6.4,3.5-12.8,5.2-19.2
					c6.6-24.4,13.2-48.7,19.7-73.1c6.6-24.4,13.2-48.7,19.7-73.1c6.2-22.8,12.8-46,12.3-69.9c-0.5-26.6-9.3-53.6-0.8-79.7
					C1033.5,430.6,1030.6,429.8,1030,431.7L1030,431.7z"/>
			</g>
		</g>
		<g>
			<g>
				<path class="st1" d="M972.9,782.3c11,17.1,22.4,34.1,36.1,49.2c6.5,7.1,13.7,13.6,20.7,20.3c3.6,3.5,7.2,7,10.5,10.7
					c1.8,2,3.5,4,5.1,6.1c0.9,1.1,5,5.8,4.7,7.4c0.5-0.4,1-0.7,1.4-1.1c0.1,0,0.2,0.1,0.3,0.1c0.1,0.6,0.2,1.2,0.2,1.8
					c0.1-0.1,0.1-0.2,0.2-0.3c1.2-1.5-1.4-3-2.6-1.5c-0.1,0.1-0.1,0.2-0.2,0.3c-0.4,0.6-0.2,1.3,0.2,1.8c0.5,0.7,1,0.9,1.8,0.8
					c0.6,0,1.3-0.4,1.4-1.1c0.7-3.2-2.8-6.7-4.5-9c-2.7-3.7-5.7-7.1-8.8-10.4c-7.3-7.7-15.4-14.6-22.9-22.2
					c-16.1-16.2-28.8-35.3-41.1-54.4C974.5,779.2,971.9,780.7,972.9,782.3L972.9,782.3z"/>
			</g>
		</g>
		<g>
			<g>
				<path class="st1" d="M898.6,516.3c11.8,9.6,24.5,21.1,22.2,37.9c-1.2,8.8-4.7,17.5-7.4,26c-2.7,8.5-5.4,17-8.1,25.5
					c-10.6,33.6-22.7,67.2-31.3,101.4c-8,31.7-9.7,63.8,5.1,93.8c13.6,27.7,33,53.3,52.6,77c22.6,27.2,47.9,52,75.5,74.1
					c1.5,1.2,3.6-0.9,2.1-2.1c-48.9-39.2-92.8-87.7-123.5-142.6c-8.6-15.5-14.3-31.8-15.1-49.6c-0.8-17.4,2.3-34.8,6.6-51.6
					c8.8-34.2,20.8-67.8,31.4-101.4c3-9.5,6-18.9,9-28.4c2.8-8.8,6.7-18.1,6.4-27.5c-0.5-15-12.7-25.7-23.4-34.5
					C899.3,513,897.1,515.1,898.6,516.3L898.6,516.3z"/>
			</g>
		</g>
		<g>
			<g>
				<path class="st1" d="M1009.9,953.5c13.2-5.4,22.2-16.6,28.7-28.9c7.8-15,12.5-31.4,14.7-48.1c0.2-1.9-2.8-1.9-3,0
					c-2,15.7-6.4,31.1-13.5,45.2c-6.1,12.1-14.7,23.6-27.6,28.9C1007.4,951.3,1008.2,954.2,1009.9,953.5L1009.9,953.5z"/>
			</g>
		</g>
		<g>
			<g>
				<path class="st1" d="M1027.9,850.1c-2.8,8.1-5.6,16.1-8.4,24.2c-0.6,1.8,2.3,2.6,2.9,0.8c2.8-8.1,5.6-16.1,8.4-24.2
					C1031.4,849.1,1028.5,848.3,1027.9,850.1L1027.9,850.1z"/>
			</g>
		</g>
		<g>
			<g>
				<path class="st1" d="M1018.8,876.7c1.9,0,1.9-3,0-3C1016.9,873.7,1016.9,876.7,1018.8,876.7L1018.8,876.7z"/>
			</g>
		</g>
		<g>
			<g>
				<path class="st1" d="M1016.4,876.1c2.8,1.5,5.6,3.1,8.4,4.6c1.2,0.6,2.3,1.3,3.5,1.9c2,1.1,5.7,3.5,2.2,5.1
					c-3,1.4-6.4-0.2-9.2-1.7c-1.5-0.8-2.9-1.7-4.1-2.7c-0.3-0.3-0.7-0.6-1-0.9c-1.8-1.3-1.9-3.2-0.4-5.7c1.9,0.4,2.7-2.5,0.8-2.9
					c-4.6-1.1-7,3.8-5.1,7.6c2.6,5.2,10.3,9.1,15.8,9.8c3.9,0.5,8.7-1.5,8-6.2c-0.4-2.6-2.7-3.5-4.8-4.6c-4.2-2.3-8.4-4.6-12.6-7
					C1016.2,872.6,1014.7,875.2,1016.4,876.1L1016.4,876.1z"/>
			</g>
		</g>
		<g>
			<g>
				<path class="st1" d="M1017.4,885.6c-8.5,16-18.7,31-30.3,44.9c-1.2,1.5,0.9,3.6,2.1,2.1c11.8-14.1,22.2-29.3,30.8-45.5
					C1020.9,885.4,1018.4,883.9,1017.4,885.6L1017.4,885.6z"/>
			</g>
		</g>
		<g>
			<g>
				<path class="st1" d="M1034.1,930.9c11.9,7.4,23.8,14.7,35.6,22.1c1.6,1,3.2-1.6,1.5-2.6c-11.9-7.4-23.8-14.7-35.6-22.1
					C1034,927.2,1032.5,929.8,1034.1,930.9L1034.1,930.9z"/>
			</g>
		</g>
		<g>
			<g>
				<path class="st1" d="M1052.2,882.4c8.1,6.1,16.4,11.9,25,17.4c1.6,1,3.1-1.6,1.5-2.6c-8.6-5.5-16.9-11.3-25-17.4
					C1052.1,878.6,1050.6,881.2,1052.2,882.4L1052.2,882.4z"/>
			</g>
		</g>
		<g>
			<g>
				<path class="st1" d="M1080.4,899.8c1.5-2,3.1-5.1,5-6.8c4.9-4.1,6.3-0.3,9.9,1.8c3.9,2.3,8.5,3.1,12.9,3.4
					c6.3,0.4,12.8-0.4,19,0.8c6.3,1.2,11.9,4.2,16.7,8.4c1.4,1.3,3.6-0.8,2.1-2.1c-5-4.4-10.8-7.6-17.2-9
					c-7.1-1.6-14.2-0.5-21.4-1.2c-3.9-0.3-7.9-1.2-11.3-3.3c-2.3-1.5-4.4-4.3-7.4-4.5c-4.9-0.4-8.7,7.8-11,10.9
					C1076.7,899.8,1079.3,901.3,1080.4,899.8L1080.4,899.8z"/>
			</g>
		</g>
		<g>
			<g>
				<path class="st1" d="M1069.1,952.4c-3.2,9.4,0.9,18.5,3,27.7c2.6,11.6,2.5,23.5,2.7,35.3c0.3,18.4,2,37.7,14.2,52.4
					c1.2,1.5,3.3-0.6,2.1-2.1c-12.5-15.1-13.1-35.3-13.4-54c-0.1-9.3-0.3-18.7-1.8-27.9c-1.7-10-7.3-20.5-3.9-30.6
					C1072.6,951.4,1069.7,950.6,1069.1,952.4L1069.1,952.4z"/>
			</g>
		</g>
		<g>
			<g>
				<path class="st1" d="M1144,906.1c1.6,6,2.6,12,2.8,18.2c0.1,2.8,0.2,5.8-0.4,8.6c-0.5,2.9-2.1,4.5-3.5,6.9
					c-2.1,3.4-1.7,6.8-0.9,10.6c1.2,5.8,2.1,11.6,2.1,17.5c0.2,10.9-1,21.8-1.7,32.7c-0.8,11.9-1.6,23.7-2.5,35.6
					c-0.1,1.9,2.9,1.9,3,0c0.8-11.9,1.6-23.7,2.5-35.6c0.8-11.5,2.1-23,1.7-34.5c-0.2-5-0.8-9.9-1.8-14.8c-0.9-4-1.4-7.2,0.9-10.8
					c0.8-1.3,1.9-2.4,2.5-3.9c1.8-4.5,1.3-10.2,1-15c-0.4-5.5-1.3-10.9-2.8-16.2C1146.4,903.4,1143.5,904.2,1144,906.1L1144,906.1z"
					/>
			</g>
		</g>
		<g>
			<g>
				<path class="st1" d="M1089,1067.7c7.2,10.2,21,12.6,31.2,5.3c5.3-3.8,9.2-9.4,12.7-14.9c3.9-6,9.7-12.6,9.6-20.1
					c0-1.9-3-1.9-3,0c0.1,6.3-5.2,12.3-8.4,17.4c-2.8,4.4-5.7,8.9-9.5,12.5c-8.8,8.5-22.6,8.8-30-1.7
					C1090.5,1064.6,1087.9,1066.1,1089,1067.7L1089,1067.7z"/>
			</g>
		</g>
		<g>
			<g>
				<path class="st1" d="M1078,898.2c1.1,11.2,4.3,21.9,9.6,31.8c0.4-0.8,0.9-1.5,1.3-2.3c-12.8-1.5-22.2,10.8-21.4,22.7
					c0.1,1.9,3.1,1.9,3,0c-0.6-10.4,7.2-21.1,18.4-19.7c1.2,0.1,1.8-1.4,1.3-2.3c-5-9.5-8.1-19.7-9.1-30.3
					C1080.8,896.3,1077.8,896.2,1078,898.2L1078,898.2z"/>
			</g>
		</g>
		<g>
			<g>
				<path class="st1" d="M1050.6,881.1c-1.4,16.7-5.1,33.1-11,48.8c0.5-0.4,1-0.7,1.4-1.1c-1.2-0.1-2.4-0.1-3.7-0.2
					c0.4,0.8,0.9,1.5,1.3,2.3c3.8-7.9,6.7-16.2,8.7-24.8c0.4-1.9-2.5-2.7-2.9-0.8c-1.9,8.3-4.7,16.3-8.4,24c-0.5,1,0.1,2.2,1.3,2.3
					c1.2,0.1,2.4,0.1,3.7,0.2c0.7,0,1.2-0.5,1.4-1.1c6-16,9.7-32.6,11.1-49.6C1053.8,879.2,1050.8,879.2,1050.6,881.1L1050.6,881.1z
					"/>
			</g>
		</g>
		<g>
			<g>
				<path class="st1" d="M980.8,421.8c-1.8,10.7-3.6,21.4-5.4,32.1c-1.7,10.1-3.3,20.5-2.6,30.8c0.5,7.7,1.9,16.4,7.2,22.4
					c4.5,5.1,11.8,7.1,17.9,3.5c1.7-1,0.1-3.6-1.5-2.6c-9.1,5.4-16.5-4.1-18.7-12c-2.3-7.9-2.3-16.4-1.6-24.6
					c1.4-16.3,4.9-32.6,7.6-48.8C984,420.7,981.1,419.9,980.8,421.8L980.8,421.8z"/>
			</g>
		</g>
		<g>
			<g>
				<path class="st1" d="M971.1,440.1c-2.5,11.7-4.5,23.5-5.9,35.3c-1.1,9.6-2.1,19.5,3.1,28.1c1,1.7,3.6,0.1,2.6-1.5
					c-5.1-8.6-3.6-19-2.4-28.5c1.4-11,3.3-21.8,5.6-32.6C974.4,439,971.5,438.2,971.1,440.1L971.1,440.1z"/>
			</g>
		</g>
		<g>
			<g>
				<path class="st1" d="M1077,950.8c-5.9,3.1-10.8,7.8-13.9,13.8c-1.6,3.1-5.1,10.1-1.1,12.7c4.3,2.8,9.8-3.6,12.1-6.5
					c4-5.2,6.1-11.4,6.3-17.9c-0.9,0.3-1.9,0.5-2.8,0.8c2.4,3.6,6,7,10.7,6.7c3.6-0.3,7.3-3.4,7.3-7.2c0-9.4-16.1-8-19.4-1.7
					c-0.9,1.7,1.7,3.2,2.6,1.5c1.1-2,3.4-2.6,5.4-3.1c1-0.1,1.9-0.3,2.9-0.4c2.7-0.5,4.2,0.6,4.2,3.1c1.5,2,1,3.2-1.5,3.6
					c-1.6,1.6-3.4,1.7-5.3,0.4c-1.8-0.9-3.2-2.7-4.3-4.3c-0.8-1.2-2.7-0.8-2.8,0.8c-0.2,4.8-1.4,9.5-4,13.6
					c-1.2,1.9-8.2,11.6-10,6.2c-0.9-2.5,3.1-8.3,4.6-10.3c2.8-3.8,6.4-6.8,10.5-9C1080.3,952.5,1078.8,949.9,1077,950.8L1077,950.8z
					"/>
			</g>
		</g>
		<g>
			<g>
				<path class="st1" d="M1076.2,985.9c5.9-5.1,13.1-7.4,20.9-6.7c-0.3-0.9-0.5-1.9-0.8-2.8c-8.2,5-16.5,10.4-20.9,19.2
					c-0.9,1.7,1.7,3.2,2.6,1.5c4.2-8.4,12.1-13.4,19.8-18.1c1.3-0.8,0.7-2.7-0.8-2.8c-8.5-0.7-16.5,2-23,7.6
					C1072.6,985,1074.7,987.1,1076.2,985.9L1076.2,985.9z"/>
			</g>
		</g>
		<g>
			<g>
				<path class="st1" d="M1078,1007.5c6.8-4.9,14.3-8.1,22.5-9.7c-0.4-0.9-0.8-1.8-1.2-2.7c-9.8,6.6-17.7,15.2-23.2,25.7
					c-0.9,1.7,1.7,3.2,2.6,1.5c5.3-10,12.8-18.3,22.2-24.6c1.4-1,0.5-3.1-1.2-2.7c-8.5,1.6-16.2,4.9-23.2,10
					C1074.9,1006.1,1076.4,1008.7,1078,1007.5L1078,1007.5z"/>
			</g>
		</g>
		<g>
			<g>
				<path class="st1" d="M1079,1030c5.7-5.3,12.7-8.7,20.5-9.7c-0.4-0.9-0.7-1.7-1.1-2.6c-7.8,6.5-14.2,14.1-19.2,22.9
					c-1,1.7,1.6,3.2,2.6,1.5c4.9-8.6,11.2-16,18.8-22.3c0.9-0.8,0.2-2.7-1.1-2.6c-8.6,1.1-16.2,4.6-22.6,10.5
					C1075.4,1029.2,1077.6,1031.4,1079,1030L1079,1030z"/>
			</g>
		</g>
		<g>
			<g>
				<path class="st1" d="M1075.9,994.3c7.2-2.9,14.6-4.2,22.3-4c1.9,0.1,1.9-2.9,0-3c-8-0.2-15.7,1.1-23.1,4.1
					C1073.4,992.1,1074.1,995,1075.9,994.3L1075.9,994.3z"/>
			</g>
		</g>
		<g>
			<g>
				<path class="st1" d="M1077,1018.7c6.7-3.4,13.7-5.7,21.1-7c1.9-0.3,1.1-3.2-0.8-2.9c-7.6,1.4-14.9,3.8-21.8,7.3
					C1073.8,1017,1075.3,1019.6,1077,1018.7L1077,1018.7z"/>
			</g>
		</g>
		<g>
			<g>
				<path class="st1" d="M1095.7,1069c2.7-6.5,12.6-3.6,17.8-6.2c3.9-2,6.4-5.6,7.4-9.8c0.4-1.9-2.5-2.7-2.9-0.8
					c-2,9-9.3,8.3-16.6,9.7c-4,0.7-7,2.6-8.6,6.4C1092.1,1069.9,1095,1070.7,1095.7,1069L1095.7,1069z"/>
			</g>
		</g>
		<g>
			<g>
				<path class="st1" d="M1132.6,899.9c-1.7,4.6-3.3,9.3-3.7,14.2c-0.4,5.2,1.6,9.9,2,15c0.3,3.9-0.2,7.8,0.9,11.7
					c1.5,5,5.2,9.4,4.4,14.8c-0.3,1.9,2.6,2.7,2.9,0.8c0.5-3.4-0.2-6.3-1.5-9.5c-2.1-5-3.6-8.9-3.7-14.5c0-4.3-0.9-8-1.7-12.2
					c-1.2-6.8,1-13.2,3.2-19.5C1136.1,898.9,1133.2,898.1,1132.6,899.9L1132.6,899.9z"/>
			</g>
		</g>
		<g>
			<g>
				<path class="st1" d="M1093.3,934.3c0.2,0,0.4,0,0.6,0c0.8,0,1.5-0.7,1.5-1.5c0-0.8-0.7-1.5-1.5-1.5c-0.2,0-0.4,0-0.6,0
					c-0.8,0-1.5,0.7-1.5,1.5C1091.8,933.7,1092.4,934.3,1093.3,934.3L1093.3,934.3z"/>
			</g>
		</g>
		<g>
			<g>
				<path class="st1" d="M1093.8,925.5c1.9,0,1.9-3,0-3C1091.9,922.5,1091.9,925.5,1093.8,925.5L1093.8,925.5z"/>
			</g>
		</g>
		<g>
			<g>
				<path class="st1" d="M1090,917.2c1.9,0,1.9-3,0-3C1088,914.2,1088,917.2,1090,917.2L1090,917.2z"/>
			</g>
		</g>
		<g>
			<g>
				<path class="st1" d="M1085.7,906.4c0,0.2,0,0.4,0,0.6c0,0.8,0.7,1.5,1.5,1.5c0.8,0,1.5-0.7,1.5-1.5c0-0.2,0-0.4,0-0.6
					c0-0.8-0.7-1.5-1.5-1.5C1086.4,904.9,1085.7,905.5,1085.7,906.4L1085.7,906.4z"/>
			</g>
		</g>
		<g>
			<g>
				<path class="st1" d="M1085.5,897.9c1.9,0,1.9-3,0-3C1083.6,894.9,1083.6,897.9,1085.5,897.9L1085.5,897.9z"/>
			</g>
		</g>
		<g>
			<g>
				<path class="st1" d="M1092.2,900.1c0.2,0,0.4,0,0.6,0c0.8,0,1.5-0.7,1.5-1.5c0-0.8-0.7-1.5-1.5-1.5c-0.2,0-0.4,0-0.6,0
					c-0.8,0-1.5,0.7-1.5,1.5C1090.7,899.4,1091.3,900.1,1092.2,900.1L1092.2,900.1z"/>
			</g>
		</g>
		<g>
			<g>
				<path class="st1" d="M1101.5,904c0.2,0,0.4,0,0.6,0c0.8,0,1.5-0.7,1.5-1.5c0-0.8-0.7-1.5-1.5-1.5c-0.2,0-0.4,0-0.6,0
					c-0.8,0-1.5,0.7-1.5,1.5C1100.1,903.3,1100.7,904,1101.5,904L1101.5,904z"/>
			</g>
		</g>
		<g>
			<g>
				<path class="st1" d="M1108.8,904.1c0.2,0.2,0.4,0.4,0.6,0.6c0.6,0.6,1.5,0.6,2.1,0c0.6-0.6,0.6-1.5,0-2.1
					c-0.2-0.2-0.4-0.4-0.6-0.6c-0.6-0.6-1.5-0.6-2.1,0C1108.2,902.6,1108.2,903.5,1108.8,904.1L1108.8,904.1z"/>
			</g>
		</g>
		<g>
			<g>
				<path class="st1" d="M1119.2,905.6c1.9,0,1.9-3,0-3C1117.3,902.6,1117.3,905.6,1119.2,905.6L1119.2,905.6z"/>
			</g>
		</g>
		<g>
			<g>
				<path class="st1" d="M1130.8,902.5c-0.2-0.2-0.4-0.4-0.6-0.6c-0.6-0.6-1.5-0.6-2.1,0c-0.6,0.6-0.6,1.5,0,2.1
					c0.2,0.2,0.4,0.4,0.6,0.6c0.6,0.6,1.5,0.6,2.1,0C1131.3,904.1,1131.3,903.1,1130.8,902.5L1130.8,902.5z"/>
			</g>
		</g>
		<g>
			<g>
				<path class="st1" d="M1093.8,909c1.9,0,1.9-3,0-3C1091.9,906,1091.9,909,1093.8,909L1093.8,909z"/>
			</g>
		</g>
		<g>
			<g>
				<path class="st1" d="M1102.7,912.3c0.2,0,0.4,0,0.6,0c0.8,0,1.5-0.7,1.5-1.5c0-0.8-0.7-1.5-1.5-1.5c-0.2,0-0.4,0-0.6,0
					c-0.8,0-1.5,0.7-1.5,1.5C1101.2,911.6,1101.8,912.3,1102.7,912.3L1102.7,912.3z"/>
			</g>
		</g>
		<g>
			<g>
				<path class="st1" d="M1109.9,912.4c0.2,0.2,0.4,0.4,0.6,0.6c0.6,0.6,1.5,0.6,2.1,0c0.6-0.6,0.6-1.5,0-2.1
					c-0.2-0.2-0.4-0.4-0.6-0.6c-0.6-0.6-1.5-0.6-2.1,0C1109.3,910.8,1109.3,911.8,1109.9,912.4L1109.9,912.4z"/>
			</g>
		</g>
		<g>
			<g>
				<path class="st1" d="M1118.7,912.9c0.2,0.2,0.4,0.4,0.6,0.6c0.6,0.6,1.5,0.6,2.1,0c0.6-0.6,0.6-1.5,0-2.1
					c-0.2-0.2-0.4-0.4-0.6-0.6c-0.6-0.6-1.5-0.6-2.1,0C1118.1,911.4,1118.1,912.4,1118.7,912.9L1118.7,912.9z"/>
			</g>
		</g>
		<g>
			<g>
				<path class="st1" d="M1126.4,911.7c1.9,0,1.9-3,0-3C1124.5,908.7,1124.5,911.7,1126.4,911.7L1126.4,911.7z"/>
			</g>
		</g>
		<g>
			<g>
				<path class="st1" d="M1096.6,917.2c0.4,0,0.7,0,1.1,0c0.8,0,1.5-0.7,1.5-1.5c0-0.8-0.7-1.5-1.5-1.5c-0.4,0-0.7,0-1.1,0
					c-0.8,0-1.5,0.7-1.5,1.5C1095.1,916.6,1095.7,917.2,1096.6,917.2L1096.6,917.2z"/>
			</g>
		</g>
		<g>
			<g>
				<path class="st1" d="M1106,922.2c1.9,0,1.9-3,0-3C1104,919.2,1104,922.2,1106,922.2L1106,922.2z"/>
			</g>
		</g>
		<g>
			<g>
				<path class="st1" d="M1116.4,921.1c1.9,0,1.9-3,0-3C1114.5,918.1,1114.5,921.1,1116.4,921.1L1116.4,921.1z"/>
			</g>
		</g>
		<g>
			<g>
				<path class="st1" d="M1125.3,921.1c1.9,0,1.9-3,0-3C1123.3,918.1,1123.3,921.1,1125.3,921.1L1125.3,921.1z"/>
			</g>
		</g>
		<g>
			<g>
				<path class="st1" d="M1100.4,930.5c0.2,0,0.4,0,0.6,0c0.8,0,1.5-0.7,1.5-1.5c0-0.8-0.7-1.5-1.5-1.5c-0.2,0-0.4,0-0.6,0
					c-0.8,0-1.5,0.7-1.5,1.5C1099,929.8,1099.6,930.5,1100.4,930.5L1100.4,930.5z"/>
			</g>
		</g>
		<g>
			<g>
				<path class="st1" d="M1109.3,931.1c0.2,0.2,0.4,0.4,0.6,0.6c0.6,0.6,1.5,0.6,2.1,0c0.6-0.6,0.6-1.5,0-2.1
					c-0.2-0.2-0.4-0.4-0.6-0.6c-0.6-0.6-1.5-0.6-2.1,0C1108.7,929.6,1108.7,930.6,1109.3,931.1L1109.3,931.1z"/>
			</g>
		</g>
		<g>
			<g>
				<path class="st1" d="M1120.9,930.5c0.2,0,0.4,0,0.6,0c0.8,0,1.5-0.7,1.5-1.5c0-0.8-0.7-1.5-1.5-1.5c-0.2,0-0.4,0-0.6,0
					c-0.8,0-1.5,0.7-1.5,1.5C1119.4,929.8,1120,930.5,1120.9,930.5L1120.9,930.5z"/>
			</g>
		</g>
		<g>
			<g>
				<path class="st1" d="M1097.7,943.8c0.2,0.2,0.4,0.4,0.6,0.6c0.6,0.6,1.5,0.6,2.1,0c0.6-0.6,0.6-1.5,0-2.1
					c-0.2-0.2-0.4-0.4-0.6-0.6c-0.6-0.6-1.5-0.6-2.1,0C1097.2,942.3,1097.2,943.3,1097.7,943.8L1097.7,943.8z"/>
			</g>
		</g>
		<g>
			<g>
				<path class="st1" d="M1100.6,953.3c0,0.2,0,0.4,0,0.6c0,0.8,0.7,1.5,1.5,1.5c0.8,0,1.5-0.7,1.5-1.5c0-0.2,0-0.4,0-0.6
					c0-0.8-0.7-1.5-1.5-1.5C1101.3,951.8,1100.6,952.4,1100.6,953.3L1100.6,953.3z"/>
			</g>
		</g>
		<g>
			<g>
				<path class="st1" d="M1104.9,966.4c1.9,0,1.9-3,0-3C1102.9,963.4,1102.9,966.4,1104.9,966.4L1104.9,966.4z"/>
			</g>
		</g>
		<g>
			<g>
				<path class="st1" d="M1106,976.3c1.9,0,1.9-3,0-3C1104,973.3,1104,976.3,1106,976.3L1106,976.3z"/>
			</g>
		</g>
		<g>
			<g>
				<path class="st1" d="M1107.6,986.8c1.9,0,1.9-3,0-3C1105.7,983.8,1105.7,986.8,1107.6,986.8L1107.6,986.8z"/>
			</g>
		</g>
		<g>
			<g>
				<path class="st1" d="M1107.2,994.7c0,0.2,0,0.4,0,0.6c0,0.8,0.7,1.5,1.5,1.5c0.8,0,1.5-0.7,1.5-1.5c0-0.2,0-0.4,0-0.6
					c0-0.8-0.7-1.5-1.5-1.5C1107.9,993.2,1107.2,993.8,1107.2,994.7L1107.2,994.7z"/>
			</g>
		</g>
		<g>
			<g>
				<path class="st1" d="M1109.3,1007.2c1.9,0,1.9-3,0-3C1107.3,1004.2,1107.3,1007.2,1109.3,1007.2L1109.3,1007.2z"/>
			</g>
		</g>
		<g>
			<g>
				<path class="st1" d="M1109.8,1017.1c1.9,0,1.9-3,0-3C1107.9,1014.1,1107.9,1017.1,1109.8,1017.1L1109.8,1017.1z"/>
			</g>
		</g>
		<g>
			<g>
				<path class="st1" d="M1107.8,1025c0,0.2,0,0.4,0,0.6c0,0.8,0.7,1.5,1.5,1.5c0.8,0,1.5-0.7,1.5-1.5c0-0.2,0-0.4,0-0.6
					c0-0.8-0.7-1.5-1.5-1.5C1108.5,1023.5,1107.8,1024.2,1107.8,1025L1107.8,1025z"/>
			</g>
		</g>
		<g>
			<g>
				<path class="st1" d="M1083.3,1054.1c1.9,0,1.9-3,0-3C1081.4,1051.1,1081.4,1054.1,1083.3,1054.1L1083.3,1054.1z"/>
			</g>
		</g>
		<g>
			<g>
				<path class="st1" d="M1093.1,1046.5c0-0.2,0-0.4,0-0.6c0-0.8-0.7-1.5-1.5-1.5c-0.8,0-1.5,0.7-1.5,1.5c0,0.2,0,0.4,0,0.6
					c0,0.8,0.7,1.5,1.5,1.5C1092.4,1048,1093.1,1047.4,1093.1,1046.5L1093.1,1046.5z"/>
			</g>
		</g>
		<g>
			<g>
				<path class="st1" d="M1099.3,1042.5c1.9,0,1.9-3,0-3C1097.4,1039.5,1097.4,1042.5,1099.3,1042.5L1099.3,1042.5z"/>
			</g>
		</g>
		<g>
			<g>
				<path class="st1" d="M1106.5,1037c1.9,0,1.9-3,0-3C1104.6,1034,1104.6,1037,1106.5,1037L1106.5,1037z"/>
			</g>
		</g>
		<g>
			<g>
				<path class="st1" d="M1089.4,1060.8c0.2-0.2,0.4-0.4,0.6-0.6c0.6-0.6,0.6-1.5,0-2.1c-0.6-0.6-1.5-0.6-2.1,0
					c-0.2,0.2-0.4,0.4-0.6,0.6c-0.6,0.6-0.6,1.5,0,2.1C1087.8,1061.4,1088.8,1061.4,1089.4,1060.8L1089.4,1060.8z"/>
			</g>
		</g>
		<g>
			<g>
				<path class="st1" d="M1096,1055.2c1.9,0,1.9-3,0-3C1094.1,1052.2,1094.1,1055.2,1096,1055.2L1096,1055.2z"/>
			</g>
		</g>
		<g>
			<g>
				<path class="st1" d="M1102.1,1051.9c1.9,0,1.9-3,0-3C1100.2,1048.9,1100.2,1051.9,1102.1,1051.9L1102.1,1051.9z"/>
			</g>
		</g>
		<g>
			<g>
				<path class="st1" d="M1108.7,1045.8c1.9,0,1.9-3,0-3C1106.8,1042.8,1106.8,1045.8,1108.7,1045.8L1108.7,1045.8z"/>
			</g>
		</g>
		<g>
			<g>
				<path class="st1" d="M1104.9,1059.6c1.9,0,1.9-3,0-3C1102.9,1056.6,1102.9,1059.6,1104.9,1059.6L1104.9,1059.6z"/>
			</g>
		</g>
		<g>
			<g>
				<path class="st1" d="M1113.1,1055.2c1.9,0,1.9-3,0-3C1111.2,1052.2,1111.2,1055.2,1113.1,1055.2L1113.1,1055.2z"/>
			</g>
		</g>
		<g>
			<g>
				<path class="st1" d="M1119.2,1047.5c1.9,0,1.9-3,0-3C1117.3,1044.5,1117.3,1047.5,1119.2,1047.5L1119.2,1047.5z"/>
			</g>
		</g>
		<g>
			<g>
				<path class="st1" d="M1123.6,1034.8c1.9,0,1.9-3,0-3C1121.7,1031.8,1121.7,1034.8,1123.6,1034.8L1123.6,1034.8z"/>
			</g>
		</g>
		<g>
			<g>
				<path class="st1" d="M1126.9,1027.1c1.9,0,1.9-3,0-3C1125,1024.1,1125,1027.1,1126.9,1027.1L1126.9,1027.1z"/>
			</g>
		</g>
		<g>
			<g>
				<path class="st1" d="M1131.7,1012.9c0-0.4,0-0.7,0-1.1c0-0.8-0.7-1.5-1.5-1.5c-0.8,0-1.5,0.7-1.5,1.5c0,0.4,0,0.7,0,1.1
					c0,0.8,0.7,1.5,1.5,1.5C1131.1,1014.3,1131.7,1013.7,1131.7,1012.9L1131.7,1012.9z"/>
			</g>
		</g>
		<g>
			<g>
				<path class="st1" d="M1131.4,1004.4c1.9,0,1.9-3,0-3C1129.4,1001.4,1129.4,1004.4,1131.4,1004.4L1131.4,1004.4z"/>
			</g>
		</g>
		<g>
			<g>
				<path class="st1" d="M1132.9,994.1c0-0.2,0-0.4,0-0.6c0-0.8-0.7-1.5-1.5-1.5c-0.8,0-1.5,0.7-1.5,1.5c0,0.2,0,0.4,0,0.6
					c0,0.8,0.7,1.5,1.5,1.5C1132.2,995.6,1132.9,994.9,1132.9,994.1L1132.9,994.1z"/>
			</g>
		</g>
		<g>
			<g>
				<path class="st1" d="M1131.9,984.6c1.9,0,1.9-3,0-3C1130,981.6,1130,984.6,1131.9,984.6L1131.9,984.6z"/>
			</g>
		</g>
		<g>
			<g>
				<path class="st1" d="M1133,972.4c1.9,0,1.9-3,0-3C1131.1,969.4,1131.1,972.4,1133,972.4L1133,972.4z"/>
			</g>
		</g>
		<g>
			<g>
				<path class="st1" d="M1132.5,961.4c1.9,0,1.9-3,0-3C1130.5,958.4,1130.5,961.4,1132.5,961.4L1132.5,961.4z"/>
			</g>
		</g>
		<g>
			<g>
				<path class="st1" d="M1132.5,953.1c1.9,0,1.9-3,0-3C1130.5,950.1,1130.5,953.1,1132.5,953.1L1132.5,953.1z"/>
			</g>
		</g>
		<g>
			<g>
				<path class="st1" d="M1129.7,941.2c-0.2-0.2-0.4-0.4-0.6-0.6c-0.6-0.6-1.5-0.6-2.1,0c-0.6,0.6-0.6,1.5,0,2.1
					c0.2,0.2,0.4,0.4,0.6,0.6c0.6,0.6,1.5,0.6,2.1,0C1130.2,942.7,1130.2,941.7,1129.7,941.2L1129.7,941.2z"/>
			</g>
		</g>
		<g>
			<g>
				<path class="st1" d="M1126.4,932.1c1.9,0,1.9-3,0-3C1124.5,929.1,1124.5,932.1,1126.4,932.1L1126.4,932.1z"/>
			</g>
		</g>
		<g>
			<g>
				<path class="st1" d="M1103.8,941c1.9,0,1.9-3,0-3C1101.8,938,1101.8,941,1103.8,941L1103.8,941z"/>
			</g>
		</g>
		<g>
			<g>
				<path class="st1" d="M1112,939.9c1.9,0,1.9-3,0-3C1110.1,936.9,1110.1,939.9,1112,939.9L1112,939.9z"/>
			</g>
		</g>
		<g>
			<g>
				<path class="st1" d="M1121.4,938.2c1.9,0,1.9-3,0-3C1119.5,935.2,1119.5,938.2,1121.4,938.2L1121.4,938.2z"/>
			</g>
		</g>
		<g>
			<g>
				<path class="st1" d="M1107.8,946.1c0,0.2,0,0.4,0,0.6c0,0.8,0.7,1.5,1.5,1.5c0.8,0,1.5-0.7,1.5-1.5c0-0.2,0-0.4,0-0.6
					c0-0.8-0.7-1.5-1.5-1.5C1108.5,944.6,1107.8,945.3,1107.8,946.1L1107.8,946.1z"/>
			</g>
		</g>
		<g>
			<g>
				<path class="st1" d="M1119.2,948.1c1.9,0,1.9-3,0-3C1117.3,945.1,1117.3,948.1,1119.2,948.1L1119.2,948.1z"/>
			</g>
		</g>
		<g>
			<g>
				<path class="st1" d="M1127.5,952c1.9,0,1.9-3,0-3C1125.6,949,1125.6,952,1127.5,952L1127.5,952z"/>
			</g>
		</g>
		<g>
			<g>
				<path class="st1" d="M1110.9,958.6c1.9,0,1.9-3,0-3C1109,955.6,1109,958.6,1110.9,958.6L1110.9,958.6z"/>
			</g>
		</g>
		<g>
			<g>
				<path class="st1" d="M1117.6,955.3c1.9,0,1.9-3,0-3C1115.6,952.3,1115.6,955.3,1117.6,955.3L1117.6,955.3z"/>
			</g>
		</g>
		<g>
			<g>
				<path class="st1" d="M1120.9,967.5c1.9,0,1.9-3,0-3C1118.9,964.5,1118.9,967.5,1120.9,967.5L1120.9,967.5z"/>
			</g>
		</g>
		<g>
			<g>
				<path class="st1" d="M1122.1,956.6c0,0.2,0,0.4,0,0.6c0,0.8,0.7,1.5,1.5,1.5c0.8,0,1.5-0.7,1.5-1.5c0-0.2,0-0.4,0-0.6
					c0-0.8-0.7-1.5-1.5-1.5C1122.8,955.1,1122.1,955.7,1122.1,956.6L1122.1,956.6z"/>
			</g>
		</g>
		<g>
			<g>
				<path class="st1" d="M1113.7,968c1.9,0,1.9-3,0-3C1111.8,965,1111.8,968,1113.7,968L1113.7,968z"/>
			</g>
		</g>
		<g>
			<g>
				<path class="st1" d="M1115.3,982.9c0.2,0,0.4,0,0.6,0c0.8,0,1.5-0.7,1.5-1.5c0-0.8-0.7-1.5-1.5-1.5c-0.2,0-0.4,0-0.6,0
					c-0.8,0-1.5,0.7-1.5,1.5C1113.9,982.2,1114.5,982.9,1115.3,982.9L1115.3,982.9z"/>
			</g>
		</g>
		<g>
			<g>
				<path class="st1" d="M1113.8,974.2c0,0.2,0,0.4,0,0.6c0,0.8,0.7,1.5,1.5,1.5c0.8,0,1.5-0.7,1.5-1.5c0-0.2,0-0.4,0-0.6
					c0-0.8-0.7-1.5-1.5-1.5C1114.5,972.8,1113.8,973.4,1113.8,974.2L1113.8,974.2z"/>
			</g>
		</g>
		<g>
			<g>
				<path class="st1" d="M1125.4,964.9c0,0.2,0,0.4,0,0.6c0,0.8,0.7,1.5,1.5,1.5c0.8,0,1.5-0.7,1.5-1.5c0-0.2,0-0.4,0-0.6
					c0-0.8-0.7-1.5-1.5-1.5C1126.1,963.4,1125.4,964,1125.4,964.9L1125.4,964.9z"/>
			</g>
		</g>
		<g>
			<g>
				<path class="st1" d="M1124.2,975.7c1.9,0,1.9-3,0-3C1122.2,972.7,1122.2,975.7,1124.2,975.7L1124.2,975.7z"/>
			</g>
		</g>
		<g>
			<g>
				<path class="st1" d="M1122.5,991.7c0.2,0,0.4,0,0.6,0c0.8,0,1.5-0.7,1.5-1.5c0-0.8-0.7-1.5-1.5-1.5c-0.2,0-0.4,0-0.6,0
					c-0.8,0-1.5,0.7-1.5,1.5C1121.1,991.1,1121.7,991.7,1122.5,991.7L1122.5,991.7z"/>
			</g>
		</g>
		<g>
			<g>
				<path class="st1" d="M1123.1,983.5c1.9,0,1.9-3,0-3C1121.1,980.5,1121.1,983.5,1123.1,983.5L1123.1,983.5z"/>
			</g>
		</g>
		<g>
			<g>
				<path class="st1" d="M1117.6,994.5c1.9,0,1.9-3,0-3C1115.6,991.5,1115.6,994.5,1117.6,994.5L1117.6,994.5z"/>
			</g>
		</g>
		<g>
			<g>
				<path class="st1" d="M1117.6,1008.9c1.9,0,1.9-3,0-3C1115.6,1005.9,1115.6,1008.9,1117.6,1008.9L1117.6,1008.9z"/>
			</g>
		</g>
		<g>
			<g>
				<path class="st1" d="M1123.6,1001.7c1.9,0,1.9-3,0-3C1121.7,998.7,1121.7,1001.7,1123.6,1001.7L1123.6,1001.7z"/>
			</g>
		</g>
		<g>
			<g>
				<path class="st1" d="M1122,1017.1c1.9,0,1.9-3,0-3C1120,1014.1,1120,1017.1,1122,1017.1L1122,1017.1z"/>
			</g>
		</g>
		<g>
			<g>
				<path class="st1" d="M1118.1,1025.4c1.9,0,1.9-3,0-3C1116.2,1022.4,1116.2,1025.4,1118.1,1025.4L1118.1,1025.4z"/>
			</g>
		</g>
		<g>
			<g>
				<path class="st1" d="M1129.7,979.6c1.9,0,1.9-3,0-3C1127.8,976.6,1127.8,979.6,1129.7,979.6L1129.7,979.6z"/>
			</g>
		</g>
	</g>
	<g id="hand_right">
		<path class="st0" d="M915.1,228.9c-5.4-0.8-10.4,4.3-18.4,12.5c-8.4,8.7-13.3,16.5-15,19.2c-6.3,9.7-13.9,17.4-29.2,32.7
			c-10.8,10.8-26.6,25.1-48.1,40.1c-3.7,3.9-9.2,9.1-16.4,14.2c-5.6,4-16.7,11.7-33.2,16.1c-6.2,1.7-17.9,4.7-32.9,2.9
			c-16.2-1.9-27.9-8.4-36.5-13.2c-6.7-3.7-11.4-7.2-17.7-11.7c-11.4-8.2-17.1-12.4-22.5-18.4c-5.2-5.8-7.8-10.3-15.1-15.2
			c-3.4-2.3-6.6-3.8-8.7-4.7c-4.1-5.4-7.7-9.9-10.4-13.1c-15.3-18.5-21.9-23.2-28.2-23.3c-2.9-0.1-4,0.9-4.5,1.4
			c-3.2,3.4,1.3,12.2,1.6,12.8c4.7,9,12,9.9,12.3,15.5c0.1,1.8-0.5,4.6-4.5,8.3c-3,2.8-3.8,3.3-5.2,6.1c-1.6,3.1-0.7,4.3-2.4,7.1
			c-1.8,2.9-3.3,2.5-4.8,4.7c-3,4.6,0.6,11.9,3,15.4c1.5,2.2,3.1,4.4,6.2,5.3c4.7,1.3,8.9-1.9,9.5-2.4c1.9,2.7,4.6,6.7,7.7,11.9
			c6.5,11,6.6,14,11,17.7c4.2,3.5,8.4,4.6,16.9,6.6c7.9,1.9,14.6,2.4,19.1,2.4c9.9,5.3,18.3,9.2,24.2,11.9
			c14.6,6.6,29.5,13.2,49.3,17.6c10.8,2.4,16.3,3.6,23.8,3c9.1-0.7,16.7-3.7,31.7-9.9c5.7-2.3,6.9-3.1,25-11.2
			c7.6-3.4,13.8-6.2,17.9-8c2.5,2.1,6.3,5.3,10.8,9.5c6.9,6.3,8.9,8.6,12.6,11.7c3.9,3.3,10,7.8,18.9,11.7
			c4.6-8.1,11.2-19.9,18.5-34.5c24.4-48.1,16.4-44.1,37.5-88.3c6.3-13.2,12.3-24.5,10.4-39.5C928.2,243.9,923.2,230.1,915.1,228.9z"
			/>
		<g>
			<g>
				<path class="st1" d="M914.7,227.4c-10.5,4.2-18.3,12.2-25.3,20.9c-8.1,10.1-15.9,20.4-24.7,30c-18.3,20.2-38.8,38.1-61.1,53.7
					c-1.6,1.1-0.1,3.7,1.5,2.6c21.1-14.7,40.6-31.5,58.2-50.3c8.3-8.9,16.1-18.3,23.6-28c7.9-10.3,16.2-21,28.6-26
					C917.3,229.6,916.5,226.7,914.7,227.4L914.7,227.4z"/>
			</g>
		</g>
		<g>
			<g>
				<path class="st1" d="M803.2,334.4c4.2,35.5,26.8,67.4,59,82.9c1.7,0.8,3.3-1.8,1.5-2.6c-31.2-15.1-53.4-45.9-57.6-80.4
					C806,332.5,803,332.5,803.2,334.4L803.2,334.4z"/>
			</g>
		</g>
		<g>
			<g>
				<path class="st1" d="M921.3,282.1c-15.5,46.3-35.5,90.9-59.6,133.3c-1,1.7,1.6,3.2,2.6,1.5c24.3-42.6,44.4-87.5,59.9-134.1
					C924.8,281,921.9,280.2,921.3,282.1L921.3,282.1z"/>
			</g>
		</g>
		<g>
			<g>
				<path class="st1" d="M807.7,330.5c9.9,31.3,28.7,59.3,54,80.2c1.5,1.2,3.6-0.9,2.1-2.1c-25-20.6-43.5-48-53.3-78.8
					C810.1,327.9,807.2,328.7,807.7,330.5L807.7,330.5z"/>
			</g>
		</g>
		<g>
			<g>
				<path class="st1" d="M814.4,327.1c9.8,30.3,30.1,56.4,57.1,73.3c1.6,1,3.1-1.6,1.5-2.6c-26.3-16.5-46.2-42-55.7-71.6
					C816.7,324.4,813.8,325.2,814.4,327.1L814.4,327.1z"/>
			</g>
		</g>
		<g>
			<g>
				<path class="st1" d="M820.2,321.2c12.1,27.8,31.1,51.9,55.3,70.2c1.5,1.2,3-1.4,1.5-2.6c-23.7-18-42.3-41.9-54.2-69.2
					C822,317.9,819.4,319.5,820.2,321.2L820.2,321.2z"/>
			</g>
		</g>
		<g>
			<g>
				<path class="st1" d="M828.9,314.7c10.8,25.8,31.2,45.3,51.2,64c1.4,1.3,3.5-0.8,2.1-2.1c-19.7-18.3-39.9-37.4-50.5-62.7
					C831.1,312.2,828.2,313,828.9,314.7L828.9,314.7z"/>
			</g>
		</g>
		<g>
			<g>
				<path class="st1" d="M836,307.7c13.8,22.3,30.6,42.5,50.1,60.1c1.4,1.3,3.6-0.8,2.1-2.1c-19.3-17.4-36-37.4-49.6-59.5
					C837.5,304.6,834.9,306.1,836,307.7L836,307.7z"/>
			</g>
		</g>
		<g>
			<g>
				<path class="st1" d="M844.5,302.4c13.2,20.9,29.7,39.3,49.1,54.6c1.5,1.2,3.6-0.9,2.1-2.1c-19.2-15.2-35.6-33.4-48.7-54
					C846.1,299.2,843.5,300.8,844.5,302.4L844.5,302.4z"/>
			</g>
		</g>
		<g>
			<g>
				<path class="st1" d="M851.1,296.4c12.6,18.6,28,35,46,48.5c1.5,1.2,3-1.4,1.5-2.6c-17.5-13.2-32.6-29.3-44.9-47.4
					C852.6,293.3,850,294.8,851.1,296.4L851.1,296.4z"/>
			</g>
		</g>
		<g>
			<g>
				<path class="st1" d="M858.1,288.4c12.9,17.2,28.5,31.9,46.5,43.6c1.6,1.1,3.1-1.5,1.5-2.6c-17.5-11.4-32.8-25.8-45.4-42.5
					C859.6,285.4,857,286.9,858.1,288.4L858.1,288.4z"/>
			</g>
		</g>
		<g>
			<g>
				<path class="st1" d="M865.2,280.9c10.7,16.7,25.1,30.6,42.3,40.6c1.7,1,3.2-1.6,1.5-2.6c-16.7-9.8-30.7-23.3-41.2-39.6
					C866.7,277.7,864.1,279.2,865.2,280.9L865.2,280.9z"/>
			</g>
		</g>
		<g>
			<g>
				<path class="st1" d="M870.5,272.2c11.5,15.4,25.4,28.7,41.3,39.5c1.6,1.1,3.1-1.5,1.5-2.6c-15.5-10.5-29-23.4-40.2-38.4
					C871.9,269.2,869.3,270.7,870.5,272.2L870.5,272.2z"/>
			</g>
		</g>
		<g>
			<g>
				<path class="st1" d="M877.6,265.2c11.7,12.7,25,23.8,39.7,33c1.6,1,3.1-1.6,1.5-2.6c-14.4-9.1-27.5-20-39.1-32.5
					C878.4,261.6,876.2,263.7,877.6,265.2L877.6,265.2z"/>
			</g>
		</g>
		<g>
			<g>
				<path class="st1" d="M886.6,257.7c3.9,5.6,9.1,9.8,14.4,14c6.6,5.3,13.1,10.6,19.7,16c1.5,1.2,3.6-0.9,2.1-2.1
					c-6.1-4.9-12.1-9.8-18.2-14.7c-5.5-4.5-11.3-8.8-15.4-14.7C888.1,254.6,885.5,256.1,886.6,257.7L886.6,257.7z"/>
			</g>
		</g>
		<g>
			<g>
				<path class="st1" d="M890.7,250.2c5.2,2.6,9.9,6.2,13.6,10.7c2.5,3.1,4.8,7.4,9.4,6.9c1.9-0.2,1.9-3.2,0-3c-4,0.5-8.3-7.5-11-10
					c-3.1-2.9-6.7-5.3-10.5-7.2C890.5,246.7,889,249.3,890.7,250.2L890.7,250.2z"/>
			</g>
		</g>
		<g>
			<g>
				<path class="st1" d="M896.3,242.8c7.7,1.5,11.2,8.9,14.2,15.4c0.8,1.8,3.4,0.2,2.6-1.5c-3.3-7.2-7.5-15-16-16.7
					C895.2,239.6,894.4,242.5,896.3,242.8L896.3,242.8z"/>
			</g>
		</g>
		<g>
			<g>
				<path class="st1" d="M902.2,236.5c4.7,2.3,8.3,6.1,10.3,11c0.7,1.8,3.6,1,2.9-0.8c-2.2-5.6-6.2-10.1-11.7-12.8
					C902,233.1,900.4,235.7,902.2,236.5L902.2,236.5z"/>
			</g>
		</g>
		<g>
			<g>
				<path class="st1" d="M911.8,229.8c1.9,2.9,3.1,6.1,3.4,9.6c0.1,1.9,3.1,1.9,3,0c-0.3-4-1.5-7.8-3.8-11.1
					C913.4,226.7,910.8,228.2,911.8,229.8L911.8,229.8z"/>
			</g>
		</g>
		<g>
			<g>
				<path class="st1" d="M636.1,332.3c-7.4-2.8-13.4-9-15.5-16.8c-0.4-1.5-0.7-3.1-0.7-4.7c0-0.4,0.3-3.2,0.9-3.7
					c1.4-1.2,4.9-0.9,6.2-0.1c3.3,2.2,5.9,6.2,8.7,9c11.2,11.4,23.5,21.7,36.7,30.7c13.3,9.1,27.4,17.5,43.5,20.4
					c15.3,2.7,31.1,1.1,45.7-4.1c15.9-5.7,30.1-15.2,42.3-26.8c1.4-1.3-0.7-3.5-2.1-2.1c-27.6,26.2-68.1,41-104.5,23.9
					c-16.9-8-32.6-19.6-46.7-32c-6.9-6-13.1-12.5-19.4-19.1c-3.1-3.3-8.3-6.9-12.1-2.5c-3.8,4.3-1.9,11.5,0.3,16.1
					c3.2,6.9,9,11.9,16,14.6C637.1,335.9,637.8,333,636.1,332.3L636.1,332.3z"/>
			</g>
		</g>
		<g>
			<g>
				<path class="st1" d="M622.7,302.5c-6.9-9.4-14.5-18.2-22.8-26.4c-4.7-4.6-13.7-14.5-21.3-10.1c-7.4,4.4-0.6,15.2,2.9,19.7
					c7.4,9.7,15.6,18.7,24.3,27.1c1.4,1.3,3.5-0.8,2.1-2.1c-6.1-5.9-11.9-12-17.4-18.5c-3.1-3.7-19.7-22.4-7.9-23.9
					c4.2-0.5,8.3,3.6,11.1,6.2c3.1,2.9,6.1,5.9,9.1,8.9c6.2,6.5,11.9,13.4,17.2,20.6C621.2,305.6,623.8,304.1,622.7,302.5
					L622.7,302.5z"/>
			</g>
		</g>
		<g>
			<g>
				<path class="st1" d="M592.8,297.5c-13.9,3.8-4,27,3.8,32.3c3.9,2.6,12.6,4.7,15.7-0.3c1.3-2,0.3-5.1-0.2-7.3
					c-1-4.1-2.7-7.8-5.1-11.2c-1.1-1.6-3.7-0.1-2.6,1.5c2.3,3.5,4.1,7.2,5,11.3c1.8,8.6-9.2,5.5-12.7,2.3c-4.9-4.4-13.2-23-3.2-25.7
					C595.5,299.9,594.7,297,592.8,297.5L592.8,297.5z"/>
			</g>
		</g>
		<g>
			<g>
				<path class="st1" d="M584.7,304.6c-5.7,8-9.4,19.3-2.3,27.7c5.4,6.4,15.9,6.2,20-1.4c0.9-1.7-1.7-3.2-2.6-1.5
					c-4.4,8-14.6,4.3-17.3-2.9c-2.8-7.2,0.6-14.5,4.8-20.4C588.4,304.5,585.8,303,584.7,304.6L584.7,304.6z"/>
			</g>
		</g>
		<g>
			<g>
				<path class="st1" d="M578.6,318.3c-10,1.3-4.4,17.9,0.1,22.3c3.4,3.2,8.9,5.7,13.4,3.4c3.7-1.8,5-5.9,3.3-9.5
					c-0.8-1.8-3.4-0.2-2.6,1.5c1.3,2.9-1.9,5.4-4.4,5.9c-1.7,0.3-4.1-0.9-5.5-1.7c-2-1.2-3.6-3.2-4.8-5.2c-1.1-1.9-1.7-4.1-1.9-6.2
					c-0.1-1.8-0.1-7.1,2.4-7.4C580.5,321.1,580.5,318.1,578.6,318.3L578.6,318.3z"/>
			</g>
		</g>
		<g>
			<g>
				<path class="st1" d="M592.3,342.6c9.1,7.6,10.2,20.7,18.9,28.7c9.5,8.7,24.6,8.2,36.6,9.4c1.9,0.2,1.9-2.8,0-3
					c-12.7-1.2-29.1-0.5-37.5-11.9c-6-8.1-7.9-18.6-15.9-25.3C592.9,339.2,590.8,341.3,592.3,342.6L592.3,342.6z"/>
			</g>
		</g>
		<g>
			<g>
				<path class="st1" d="M648,381c13.8,7.4,28,14,42.7,19.5c14.2,5.4,29.3,10.9,44.4,12.8c14.3,1.8,27.3-2.6,40.2-8.3
					c15.4-6.8,30.8-13.8,46.2-20.6c1.8-0.8,0.2-3.4-1.5-2.6c-14.3,6.4-28.6,12.8-42.9,19.2c-14.3,6.4-28.1,11.5-44,9
					c-14.2-2.3-28.2-7.4-41.5-12.4c-14.4-5.5-28.4-11.9-41.9-19.2C647.8,377.5,646.3,380,648,381L648,381z"/>
			</g>
		</g>
	</g>
	<g id="torso">
		<path class="st0" d="M915.1,228.9c0.6,5.5,0.9,11.8,0.6,18.9c-0.6,11.9-3,21.9-5.5,29.5c-4.2,9.3-9.4,20.8-14.9,34.3
			c-5.4,13.1-12.3,30.4-19.6,51c-4.4,12.3-9.5,27.6-14.9,45.3c-1.8,6-3.3,11.2-4.5,15c11.9-1.5,23.7-3,35.6-4.4
			c18-2.4,40.2-3.7,65.4-1.3c25.9,2.5,46,8,57,11.5c15.6,4.9,28.7,10.5,38.8,15.4c0.9-10.5,2.4-24.5,4.7-40.9
			c2.4-17.5,5.6-39.9,12.5-67.8c4.3-17.6,10.7-39.7,20.2-64.8c1.3-1.4,6.7-7.9,6.1-17c-0.6-9.2-7.2-17.3-16.7-20.7
			c-8.3-4.5-19-9.5-32.1-13.6c-5.9-1.8-18-5.2-33.8-7c-26.9-2.9-49.1,0.8-62.5,4C941.7,218.4,929.2,222.2,915.1,228.9z"/>
		<g>
			<g>
				<path class="st1" d="M915.6,230.7c51.1-25.1,113.3-23.8,163.3,3.4c1.7,0.9,3.2-1.7,1.5-2.6c-51-27.7-114.3-29-166.3-3.4
					C912.4,228.9,913.9,231.5,915.6,230.7L915.6,230.7z"/>
			</g>
		</g>
		<g>
			<g>
				<path class="st1" d="M910.1,273.8c-22.1,48.1-40.6,97.7-55.3,148.6c-0.5,1.9,2.4,2.7,2.9,0.8c14.6-50.6,33-100,55-147.9
					C913.4,273.6,910.9,272.1,910.1,273.8L910.1,273.8z"/>
			</g>
		</g>
		<g>
			<g>
				<path class="st1" d="M857.7,425.5c64.3-15.7,133.3-9,193.4,18.9c1.7,0.8,3.3-1.8,1.5-2.6c-60.8-28.2-130.5-35.1-195.7-19.2
					C855.1,423,855.9,425.9,857.7,425.5L857.7,425.5z"/>
			</g>
		</g>
		<g>
			<g>
				<path class="st1" d="M1084.6,275.7c-17,54.7-28.1,111.1-33.2,168.2c-0.2,1.9,2.8,1.9,3,0c5.1-56.8,16.2-112.9,33.1-167.4
					C1088.1,274.7,1085.2,273.9,1084.6,275.7L1084.6,275.7z"/>
			</g>
		</g>
		<g>
			<g>
				<path class="st1" d="M859.3,415.9c15.2-8,33.6-10.1,50.5-11.4c16-1.2,32.1-0.9,48.1,1c32.8,3.9,64.7,14.3,93.4,30.7
					c1.7,1,3.2-1.6,1.5-2.6c-29.2-16.6-61.6-27.2-94.9-31.1c-17.1-2-34.4-2.3-51.5-0.7c-16.4,1.5-33.8,3.8-48.6,11.6
					C856,414.2,857.6,416.8,859.3,415.9L859.3,415.9z"/>
			</g>
		</g>
		<g>
			<g>
				<path class="st1" d="M862.1,404c62.6-24.5,136.2-15.4,190.9,23.7c1.6,1.1,3.1-1.5,1.5-2.6c-42.7-30.5-97-43.1-148.8-35.7
					c-15.2,2.2-30.1,6.1-44.4,11.7C859.5,401.8,860.3,404.8,862.1,404L862.1,404z"/>
			</g>
		</g>
		<g>
			<g>
				<path class="st1" d="M868.3,391.8c60.9-25.8,134.3-16.2,186.7,24.1c1.5,1.2,3-1.4,1.5-2.6c-41.3-31.8-95.6-44.7-146.9-36.5
					c-14.7,2.4-29,6.5-42.7,12.3C865,389.9,866.5,392.5,868.3,391.8L868.3,391.8z"/>
			</g>
		</g>
		<g>
			<g>
				<path class="st1" d="M870.2,380.7c60.1-24.3,131-16.7,184.6,19.8c1.6,1.1,3.1-1.5,1.5-2.6c-54.2-36.9-126.1-44.6-186.9-20.1
					C867.6,378.5,868.4,381.4,870.2,380.7L870.2,380.7z"/>
			</g>
		</g>
		<g>
			<g>
				<path class="st1" d="M874.4,370.5c58.7-26.5,129.9-19.8,182.8,16.9c1.6,1.1,3.1-1.5,1.5-2.6c-53.8-37.3-126.2-43.8-185.8-16.9
					C871.1,368.7,872.7,371.3,874.4,370.5L874.4,370.5z"/>
			</g>
		</g>
		<g>
			<g>
				<path class="st1" d="M877.2,359.5c58.2-25.7,128.4-19.4,181.2,16.1c1.6,1.1,3.1-1.5,1.5-2.6c-53.8-36.1-125.1-42.2-184.2-16.1
					C874,357.7,875.5,360.3,877.2,359.5L877.2,359.5z"/>
			</g>
		</g>
		<g>
			<g>
				<path class="st1" d="M880.6,350.3c58.5-31.4,127.6-15.8,181.5,17.4c1.6,1,3.2-1.6,1.5-2.6c-54.9-33.8-125.1-49.2-184.6-17.4
					C877.4,348.6,878.9,351.2,880.6,350.3L880.6,350.3z"/>
			</g>
		</g>
		<g>
			<g>
				<path class="st1" d="M886.8,337.7c56-25.2,124.2-17.8,173.5,18.7c1.6,1.1,3.1-1.5,1.5-2.6c-50.2-37.1-119.6-44.3-176.5-18.7
					C883.5,335.9,885.1,338.5,886.8,337.7L886.8,337.7z"/>
			</g>
		</g>
		<g>
			<g>
				<path class="st1" d="M891.7,325.9c57.1-20.4,122.1-14,174.1,17.1c1.7,1,3.2-1.6,1.5-2.6c-52.7-31.5-118.6-38-176.5-17.4
					C889.1,323.7,889.9,326.6,891.7,325.9L891.7,325.9z"/>
			</g>
		</g>
		<g>
			<g>
				<path class="st1" d="M897,313.6c57.4-15.8,120-8.6,172.4,19.7c1.7,0.9,3.2-1.7,1.5-2.6c-53.1-28.7-116.5-36-174.7-20
					C894.3,311.3,895.1,314.2,897,313.6L897,313.6z"/>
			</g>
		</g>
		<g>
			<g>
				<path class="st1" d="M900.1,302.5c56.2-17.9,118.8-11.8,170.5,16.9c1.7,0.9,3.2-1.7,1.5-2.6c-52.3-29-115.8-35.4-172.8-17.2
					C897.5,300.2,898.3,303.1,900.1,302.5L900.1,302.5z"/>
			</g>
		</g>
		<g>
			<g>
				<path class="st1" d="M905.1,291.9c55.2-13.7,114.4-8.3,166.2,15.3c1.7,0.8,3.3-1.8,1.5-2.6c-52.6-23.9-112.4-29.5-168.5-15.6
					C902.5,289.5,903.2,292.4,905.1,291.9L905.1,291.9z"/>
			</g>
		</g>
		<g>
			<g>
				<path class="st1" d="M911.2,280.9c55.6-13.2,114.4-9.7,168.1,10.1c1.8,0.7,2.6-2.2,0.8-2.9c-54.1-19.9-113.6-23.4-169.7-10.1
					C908.5,278.4,909.3,281.3,911.2,280.9L911.2,280.9z"/>
			</g>
		</g>
		<g>
			<g>
				<path class="st1" d="M914.9,268.4c55.1-14.1,114.3-9,166.1,14.5c1.7,0.8,3.3-1.8,1.5-2.6c-52.6-23.8-112.5-29.2-168.5-14.8
					C912.2,266,913,268.8,914.9,268.4L914.9,268.4z"/>
			</g>
		</g>
		<g>
			<g>
				<path class="st1" d="M913.3,259.9c55-15.9,115-11.3,167,12.8c1.7,0.8,3.3-1.8,1.5-2.6c-52.7-24.5-113.4-29.3-169.3-13.1
					C910.7,257.5,911.5,260.4,913.3,259.9L913.3,259.9z"/>
			</g>
		</g>
		<g>
			<g>
				<path class="st1" d="M916.1,249.2c54.8-17.6,115.5-13.5,167.4,11.6c1.7,0.8,3.3-1.8,1.5-2.6c-52.6-25.4-114.1-29.7-169.7-11.9
					C913.4,246.9,914.2,249.8,916.1,249.2L916.1,249.2z"/>
			</g>
		</g>
		<g>
			<g>
				<path class="st1" d="M917.6,239.8c56-17.7,117.7-14,171,10.5c1.7,0.8,3.3-1.8,1.5-2.6c-54.1-24.8-116.6-28.8-173.4-10.8
					C915,237.5,915.8,240.4,917.6,239.8L917.6,239.8z"/>
			</g>
		</g>
	</g>
	<g id="keyboard">
		<path class="st2" d="M853.8,619.3c7.7-7.6,16.4-15.6,26.1-23.6c9.1-7.6,18-14.3,26.5-20.3c3.7-0.9,7.4-1.9,11.1-2.8
			c5.5-0.1,13.1-0.3,22.1-0.4c8.3-0.1,36.9-0.3,77.1,1.2c24.1,0.9,52.4,2,90,5.5c12.1,1.1,22.3,2.3,29.6,3.1
			c-6,7.3-11.4,12.9-15.1,16.7c-11.3,11.6-24.1,24.4-43.5,34.8c-7.3,3.9-13.5,6.4-17.4,7.8c-3.9-0.4-18.7-1.8-22.6-2.2
			c-62.2-5.9-76.1-7.1-91-8.6C924.7,628.3,893.2,624.9,853.8,619.3z"/>
		<g>
			<g>
				<path class="st1" d="M852.7,619.7c14.9-12.1,29.6-24.4,44.6-36.4c3.7-3,7.6-6,12-7.6c4.7-1.8,9.7-1.8,14.6-1.8
					c9.6-0.1,19.1-0.2,28.7-0.2c38.3,0.1,76.5,1.3,114.7,3.8c21.7,1.4,43.4,3.2,65.1,5.3c1.9,0.2,1.9-2.8,0-3
					c-39.7-4-79.6-6.7-119.5-8c-19.8-0.7-39.6-1-59.4-1.1c-9.9,0-19.8,0-29.7,0.2c-8.6,0.1-15.9,1.1-23.1,6
					c-8.1,5.6-15.6,12.4-23.2,18.6c-9,7.4-18,14.7-27,22.1C849.1,618.8,851.2,620.9,852.7,619.7L852.7,619.7z"/>
			</g>
		</g>
		<g>
			<g>
				<path class="st1" d="M853.8,620.8c41.4,5.1,82.9,9.9,124.4,14.2c20.4,2.1,40.9,4.2,61.3,6.1c9.1,0.9,19.8,3.6,28.5-0.1
					c7.8-3.3,15-9.3,21.8-14.3c16.6-12.2,32.1-25.9,46.3-40.9c1.3-1.4-0.8-3.5-2.1-2.1c-12.6,13.3-26.1,25.6-40.7,36.7
					c-7.3,5.6-14.7,11.1-22.6,15.8c-9.3,5.6-20,3-30.2,2c-39.9-3.8-79.8-7.9-119.6-12.5c-22.4-2.5-44.8-5.2-67.1-8
					C851.8,617.5,851.9,620.6,853.8,620.8L853.8,620.8z"/>
			</g>
		</g>
		<g>
			<g>
				<path class="st1" d="M921,614.6c10.2,1.6,20.4,3.1,30.7,4.3c2.4,0.3,4.9,0.8,6.7-1.1c2.7-2.8,3.8-8.7,5.2-12.2
					c0.7-1.8-2.2-2.6-2.9-0.8c-0.7,1.7-1.4,3.4-2.1,5.1c-0.4,1.1-1.5,4.9-2.3,5.6c-2.2,1.9-7.7-0.1-10.3-0.4
					c-8.1-1.1-16.1-2.2-24.2-3.5C919.9,611.4,919.1,614.3,921,614.6L921,614.6z"/>
			</g>
		</g>
		<g>
			<g>
				<path class="st1" d="M922.3,613.1c5.9-3,6.4-10.6,13.7-11.8c8.2-1.3,17.5,0.9,25.3,3.1c1.9,0.5,2.7-2.4,0.8-2.9
					c-8.2-2.3-17.9-4.5-26.5-3.2c-2.9,0.4-5.5,1.5-7.5,3.7c-2.6,2.8-3.8,6.7-7.3,8.5C919.1,611.4,920.6,614,922.3,613.1L922.3,613.1
					z"/>
			</g>
		</g>
		<g>
			<g>
				<path class="st1" d="M1002.3,612.4c-1.5,2.9-2.9,5.9-4.3,8.8c-0.5,1.1,0.1,2.1,1.3,2.3c10.8,1.2,21.6,0.8,32.3-1.1
					c1.9-0.3,1.1-3.2-0.8-2.9c-10.5,1.8-21,2.1-31.5,0.9c0.4,0.8,0.9,1.5,1.3,2.3c1.4-3,2.8-5.9,4.3-8.8
					C1005.7,612.2,1003.2,610.7,1002.3,612.4L1002.3,612.4z"/>
			</g>
		</g>
		<g>
			<g>
				<path class="st1" d="M1005.7,612.6c9.9-0.3,19.8-0.6,29.7-1c-0.5-0.6-1-1.3-1.4-1.9c-1.4,3.5-2.5,7.1-3.4,10.8
					c-0.5,1.9,2.4,2.7,2.9,0.8c0.9-3.7,2-7.2,3.4-10.8c0.4-0.9-0.6-1.9-1.4-1.9c-9.9,0.3-19.8,0.6-29.7,1
					C1003.8,609.7,1003.8,612.7,1005.7,612.6L1005.7,612.6z"/>
			</g>
		</g>
	</g>
	<g id="hand_left">
		<path class="st0" d="M1088.6,239c-4.9,4.2-11.5,10.9-17.5,20.2c-12.2,18.9-12,37.5-16,51.2c-5.2,18-11.3,45.6-13.8,84.5
			c7.1,1,15,2.5,23.4,4.9c5.8,1.6,11.1,3.4,16,5.3c-6.1,19.4-13,34.9-18.5,46.1c-9,18.4-22.1,44.6-47.7,70.5
			c-10.7,10.8-20.6,18.6-27.7,23.7c-8,0.6-14.7,1.7-19.4,2.7c-13.8,2.7-19.2,5.6-21.9,7.2c-1.9,1.2-11.2,6.8-10.1,10.4
			c0.9,2.8,8.8,3.1,12.7,2.9c4.8-0.3,6.7-1.6,10.5-0.8c3.4,0.7,5.8,2.7,7.3,4.1c-3.2,2.7-7.5,6.8-11.8,12.5
			c-4.8,6.2-8.1,10.6-6.6,14.1c1.5,3.4,7.2,4.5,11.3,3.9c3.4-0.5,6.4-2.2,12.4-8.4c3.8-3.9,8.8-9.7,13.9-17.6c6.2-2,8.2-1.3,9-0.3
			c1.9,2.4-3.7,7.7-5,18.3c-0.4,3.7-1,8.1,1.6,10.1c2.3,1.8,6.5,1.2,10.7-1.3c-0.7,3.7,1.4,7.2,4.4,8.3c2.9,1,6.3-2.7,9.2-5.8
			c1.8-1.9,3-3.7,3.8-5c2,1.6,3.7,1.9,5,1.9c8.5-0.3,15.2-18.8,11.9-21.5c-0.8-0.7-2.4-0.6-5.5,1.1c0.1-0.2,1.7-4.2-0.9-7.7
			c-2.5-3.4-6.5-3.2-6.8-3.2c3.5-3.4,8.4-8.2,14.1-14.1c4.1-4.2,20-20.9,41.5-48.5c3.7-4.7,12.5-17.6,30.3-43.5
			c2.6-3.8,7.4-10.9,10.2-21.3c1.8-6.5,2.2-12,2.2-15.7c3.5,2.7,7.1,5.3,10.6,8c-0.9-26-2-47.6-3-63.7c-0.6-9.1-1.4-21.3-3.1-37
			c-2-18.6-3.1-28.2-6.2-40.2c-2.6-10-5.6-21.1-13.2-33.9C1100,251.1,1093.5,243.8,1088.6,239z"/>
		<g>
			<g>
				<path class="st1" d="M1069.7,258.8c-17,43.5-27.1,89.4-29.8,136.1c-0.1,1.9,2.9,1.9,3,0c2.7-46.4,12.8-92,29.7-135.3
					C1073.3,257.8,1070.4,257,1069.7,258.8L1069.7,258.8z"/>
			</g>
		</g>
		<g>
			<g>
				<path class="st1" d="M1079.1,233.9c29.5,19.8,39.4,55.9,43.5,89.2c4.5,37.5,6.5,75.5,7.5,113.2c0.1,1.9,3.1,1.9,3,0
					c-1.1-39.6-2.9-79.8-8.3-119.1c-4.5-32.6-15.6-66.7-44.2-85.9C1079,230.3,1077.5,232.9,1079.1,233.9L1079.1,233.9z"/>
			</g>
		</g>
		<g>
			<g>
				<path class="st1" d="M1041.9,398.6c16-2.8,34.1,6.2,48.2,13c14.4,6.9,27.9,15.5,40.3,25.4c1.5,1.2,3.6-0.9,2.1-2.1
					c-13.6-10.8-28.3-20-44.1-27.3c-14.3-6.6-31.2-14.5-47.3-11.8C1039.2,396,1040,398.9,1041.9,398.6L1041.9,398.6z"/>
			</g>
		</g>
		<g>
			<g>
				<path class="st1" d="M1079.3,404.6c-10.9,34.8-27.8,67.7-49.9,96.7c-5.7,7.5-11.7,14.7-18,21.6c-6,6.6-12.7,15.2-20.7,19.4
					c-8,4.2-18.2,3.1-26.9,4.9c-8.1,1.7-16.2,4.6-23.1,9.2c-3.6,2.4-10.2,8.9-4.5,12.9c2.7,1.9,6.9,1.3,10,1
					c5.7-0.7,11.6-2.5,16.9,0.6c1.7,1,3.2-1.6,1.5-2.6c-6.5-3.7-13.2-1.3-20.2-0.8c-1,0.1-2.1,0.1-3.1,0.1c-2.4-0.1-4-2-3.3-4.7
					c0.5-2,4-3.7,5.7-4.7c4.1-2.5,8.5-4.5,13-6c8.2-2.6,16.5-3.2,24.9-4.3c8.2-1.1,13.9-4.5,19.8-10.2c23.9-23.2,44-50.5,59.4-80
					c8.7-16.7,15.9-34.2,21.5-52.2C1082.8,403.6,1079.9,402.8,1079.3,404.6L1079.3,404.6z"/>
			</g>
		</g>
		<g>
			<g>
				<path class="st1" d="M1119.2,430.9c-0.6,14.6-8.4,27.4-16,39.5c-7.4,11.8-15.5,23.1-24,34.1c-17.1,22.1-35.9,42.8-54.7,63.5
					c-1.3,1.4,0.8,3.6,2.1,2.1c19.5-21.5,39-43.1,56.7-66.1c8.9-11.6,17.3-23.5,24.9-36c7-11.4,13.5-23.5,14-37.2
					C1122.3,428.9,1119.3,428.9,1119.2,430.9L1119.2,430.9z"/>
			</g>
		</g>
		<g>
			<g>
				<path class="st1" d="M966.2,568.5c-5,4.5-9.6,9.5-13.5,15c-3.1,4.4-7,9.7-6.7,15.4c0.6,11.8,16.7,3.9,21.6,0.1
					c5.1-3.9,8.9-9,12-14.5c2.4-4.3,6.5-10.6,5.7-15.8c-0.7-4.4-4.8-6-8.8-5.4c-4.9,0.7-8.9,3.9-11.9,7.7c-1.2,1.5,1.4,3,2.6,1.5
					c2.1-2.7,14-12.1,15.2-2.5c0.4,3.4-2.6,7.7-4.2,10.7c-3.6,6.9-8.2,13.5-15,17.6c-2.7,1.7-7.4,4.4-10.7,3.7
					c-7.6-1.4-1-11.4,0.9-14.4c4.2-6.4,9.3-12,14.9-17.1C969.8,569.4,967.7,567.3,966.2,568.5L966.2,568.5z"/>
			</g>
		</g>
		<g>
			<g>
				<path class="st1" d="M985.8,577.5c2-0.8,7.9-2.3,8.3,1.8c0.1,0.9-1.6,3-2,3.8c-1.2,2.4-2.3,4.9-3.3,7.4
					c-1.6,4.2-2.9,9.1-0.4,13.2c5.2,8.4,14.2,1,18.1-4.6c6-8.7,12.9-21.5,12.4-32.4c-0.5-9.7-9.4-9-16.1-5.8
					c-1.7,0.8-0.2,3.4,1.5,2.6c2-0.9,4.7-2.2,7-2c5.1,0.5,4.8,5,4.5,8.4c-0.5,5.1-2.6,10-4.7,14.6c-2,4.2-4,8.5-6.6,12.4
					c-1.6,2.4-3.5,5.1-6.1,6.6c-4.2,2.4-7.7-0.2-8.2-4.5c-0.6-5,2.8-10.7,5-15.1c1-2,3.1-4.3,2.3-6.7c-1.7-4.9-9.5-3.8-13-2.2
					C982.5,575.6,984,578.2,985.8,577.5L985.8,577.5z"/>
			</g>
		</g>
		<g>
			<g>
				<path class="st1" d="M1019.6,573c1.4-0.5,2.9-0.9,4.4-0.8c4.5,0.2,5.2,3.2,4.6,7c-0.6,3.7-3.6,8.3-5.4,11.6
					c-1.7,3.1-3.6,6.1-5.7,8.9c-1.3,1.8-2.6,3.5-4.1,5.2c-0.5,0.6-1,1.2-1.6,1.7c-2.7,3.1-5,2.5-6.8-1.7c1-1.6-1.6-3.2-2.6-1.5
					c-2.5,4.1,0.7,8.6,5.4,8.3c7.3-0.5,12.8-10.9,16.1-16.3c2.3-3.8,4.4-7.8,6.2-11.9c1.2-2.8,2.7-6.1,1.6-9.3
					c-1.8-5.3-8.5-5.6-13-4C1017,570.8,1017.8,573.7,1019.6,573L1019.6,573z"/>
			</g>
		</g>
		<g>
			<g>
				<path class="st1" d="M1030.6,582.5c0.7-0.1,3.1-0.8,3.7-0.3c0.9,0.6,0.3,3.6,0.1,4.6c-0.5,2.1-1.7,4.4-2.7,6.4
					c-2.3,4.4-5.8,8.4-11.2,7.8c-1.9-0.2-1.9,2.8,0,3c5.9,0.7,10.5-3.2,13.2-8.1c2.6-4.6,5.6-10.5,3.3-15.7
					c-0.2-0.5-0.8-0.7-1.3-0.7c-2-0.2-3.9-0.1-5.9,0.3C1027.9,579.9,1028.7,582.8,1030.6,582.5L1030.6,582.5z"/>
			</g>
		</g>
		<g>
			<g>
				<path class="st1" d="M1042.7,390.5c34.1-7.8,64,14.3,87.6,36.1c1.4,1.3,3.5-0.8,2.1-2.1c-24.4-22.6-55.3-44.9-90.5-36.8
					C1040.1,388,1040.9,390.9,1042.7,390.5L1042.7,390.5z"/>
			</g>
		</g>
		<g>
			<g>
				<path class="st1" d="M1044.2,380.6c31.2-9,64.7,2.5,83.6,28.9c1.1,1.6,3.7,0.1,2.6-1.5c-19.7-27.6-54.4-39.7-87-30.3
					C1041.6,378.2,1042.4,381.1,1044.2,380.6L1044.2,380.6z"/>
			</g>
		</g>
		<g>
			<g>
				<path class="st1" d="M1044.4,369.8c30.1-11.1,61.3,1.6,83.8,22.2c1.4,1.3,3.5-0.8,2.1-2.1c-23.3-21.3-55.6-34.5-86.7-23
					C1041.8,367.6,1042.5,370.5,1044.4,369.8L1044.4,369.8z"/>
			</g>
		</g>
		<g>
			<g>
				<path class="st1" d="M1046.9,357.8c28.1-11.3,59.9-3.8,79.9,18.9c1.3,1.5,3.4-0.7,2.1-2.1c-20.7-23.4-53.8-31.3-82.8-19.7
					C1044.3,355.6,1045.1,358.5,1046.9,357.8L1046.9,357.8z"/>
			</g>
		</g>
		<g>
			<g>
				<path class="st1" d="M1048.1,346.9c25.4-15,57.4-10.7,78.1,10.3c1.4,1.4,3.5-0.7,2.1-2.1c-21.6-22-55.2-26.4-81.7-10.8
					C1044.9,345.2,1046.4,347.8,1048.1,346.9L1048.1,346.9z"/>
			</g>
		</g>
		<g>
			<g>
				<path class="st1" d="M1050,334c23.3-10,52.4-14.4,73,3.8c1.4,1.3,3.6-0.8,2.1-2.1c-21.7-19.2-52-14.8-76.6-4.3
					C1046.7,332.2,1048.2,334.7,1050,334L1050,334z"/>
			</g>
		</g>
		<g>
			<g>
				<path class="st1" d="M1052.9,324.2c8.3-8.2,23.2-8.7,34.1-9.5c12.4-0.9,24.9,0.6,35,8.3c1.5,1.2,3-1.4,1.5-2.6
					c-11-8.3-25-9.7-38.4-8.6c-11.5,1-25.7,1.7-34.4,10.2C1049.3,323.4,1051.5,325.5,1052.9,324.2L1052.9,324.2z"/>
			</g>
		</g>
		<g>
			<g>
				<path class="st1" d="M1055.9,311.6c19.6-10.7,42.9-12.2,63.7-4.3c1.8,0.7,2.6-2.2,0.8-2.9c-21.6-8.2-45.8-6.4-66,4.6
					C1052.7,310,1054.2,312.6,1055.9,311.6L1055.9,311.6z"/>
			</g>
		</g>
		<g>
			<g>
				<path class="st1" d="M1059.7,299.4c7.7-5.3,18.3-7.3,27.4-8.6c9.5-1.3,19-0.9,28.1,2.6c1.8,0.7,2.6-2.2,0.8-2.9
					c-9.4-3.7-19.3-4.1-29.2-2.7c-9.6,1.3-20.4,3.5-28.6,9C1056.6,297.9,1058.1,300.5,1059.7,299.4L1059.7,299.4z"/>
			</g>
		</g>
		<g>
			<g>
				<path class="st1" d="M1063,284.3c15.6-6.2,32.4-7.6,48.9-4c1.9,0.4,2.7-2.5,0.8-2.9c-16.9-3.7-34.3-2.4-50.5,4
					C1060.4,282.1,1061.2,285,1063,284.3L1063,284.3z"/>
			</g>
		</g>
		<g>
			<g>
				<path class="st1" d="M1068.4,269.5c12.6-3.4,25.9-6.2,38.3-0.7c1.7,0.8,3.3-1.8,1.5-2.6c-13.2-5.9-27.2-3.2-40.6,0.4
					C1065.7,267.1,1066.5,270,1068.4,269.5L1068.4,269.5z"/>
			</g>
		</g>
		<g>
			<g>
				<path class="st1" d="M1082.3,260.2c6.7-1.5,13.2-1.3,19.8,0.4c1.9,0.5,2.7-2.4,0.8-2.9c-7.1-1.9-14.2-2-21.4-0.4
					C1079.7,257.8,1080.5,260.6,1082.3,260.2L1082.3,260.2z"/>
			</g>
		</g>
		<g>
			<g>
				<path class="st1" d="M1090.5,249.8c1.9-0.4,3.7-0.7,5.6-1.1c1.9-0.4,1.1-3.3-0.8-2.9c-1.9,0.4-3.7,0.7-5.6,1.1
					C1087.9,247.3,1088.7,250.2,1090.5,249.8L1090.5,249.8z"/>
			</g>
		</g>
	</g>
	<g id="head">
		<path class="st1" d="M906.4,153.7c-3.1-0.2-10.4-0.7-16-5.9c-6.4-5.8-10-16.8-6.5-26.4c1.4-3.9,3.7-6.6,5.2-8.1
			c-1.3-2.6-3-6.8-3.2-12.2c-0.3-11.3,6.5-19.2,9.5-22.7c3.1-3.6,10.4-12.1,22.7-13.4c8.8-0.9,15.6,2.2,18.6,3.8
			c0.9-2.7,4-10.5,12.3-16.1c8.4-5.8,17.1-5.9,20.4-5.7c15.2,0.8,24.1,12,25.8,14.1c3.1,3.9,4.9,7.7,5.9,10.5
			c2.3-3.5,6.4-5.5,10.6-5s7.8,3.2,9.3,7.1c2.3-0.7,5.8-1.5,10.1-1.4c4,0,13,0.1,19.8,6.7c4.7,4.6,6,10.1,6.3,11.5
			c1.8,8.9-2.5,15.9-3.4,17.4c0.9,1.1,2.3,3.2,2.7,6c0.9,6.9-5.2,11.7-5.6,12c2,1.2,5.5,3.6,7.4,7.9c2.3,5.4,0.7,10.5-1.3,17
			c-3.1,9.8-8.3,16.1-9.5,17.5c-2.5,3-7.6,8.9-14.9,11.7c-10.5,4-20.8-0.3-27.7-2.8C981,168.2,934.7,156,906.4,153.7z"/>
		<path class="st0" d="M950.9,94.8c-4.7,0.5-12.9,2.1-21.6,7.2c-9.4,5.5-14.9,12.4-17.7,16.5c-1.1,5.4-2.3,13.3-3,22.9
			c-0.8,12.8-1.4,22,1.3,33.4c1.8,7.5,4.8,19.8,15.6,30.2c2.9,2.8,10.2,9.6,22,12.2c8.4,1.8,15.5,0.7,19.4-0.2
			c1.3,3.8,3.4,8.7,6.9,13.8c2.2,3.2,4.5,5.9,6.5,8c3.5,0.6,8,0.8,13-0.2c16.1-3.3,24.4-17.1,26.2-20.2c-1.8-4-3.5-8.8-4.7-14.2
			c-3.7-16-1.6-29.9,0.5-38.5c1.9,0,8.3-0.2,14.2-4.9c1.5-1.2,6.3-5.2,7.7-12.2c0.2-1.2,1.8-10-4.1-16.2c-1.2-1.3-4.5-4.8-8.8-4.6
			c-4.2,0.2-5,3.7-12.6,7.8c-3.7,2-6.1,3.3-9.1,3.1c-5.5-0.3-9.3-5.1-11.6-8c-5.6-7.1-6.7-15.1-6.9-19.5c-2.7,0.8-8.7,2.1-15.5,0
			C956.5,107.4,951.6,96.6,950.9,94.8z"/>
		<path class="st1" d="M942.2,143.3c-2.9,6.4-5.6,13.9-7.8,22.5c-1,4-1.8,7.8-2.5,11.4c1.2,0.3,3.9,0.9,7.2,0.1
			c3.3-0.8,5.5-2.6,6.4-3.4C944.4,163.7,943.3,153.5,942.2,143.3z"/>
		<path class="st1" d="M961.7,119.5c-3.3,0.5-6.7,3.6-6.1,6.7c0.5,2.6,3.7,4.2,6.3,4.2c3.9,0,8-3.6,7.4-6.8
			C968.8,120.9,964.9,119,961.7,119.5z"/>
		<path class="st1" d="M921.8,122.9c-0.6,0.5-3.1,2.2-2.9,4.4c0.2,2.6,4.1,4.8,7.3,4.3c4.4-0.7,7.3-6.6,5.8-9.1
			C930.6,120.2,925.1,120.5,921.8,122.9z"/>
		<g>
			<g>
				<path class="st1" d="M910.1,118.1c-4.3,28.9-8.4,62.1,12.5,85.9c18.6,21.2,50,18.9,70.2,1.3c11.8-10.3,19.3-24.5,23.9-39.3
					c0.6-1.8-2.3-2.6-2.9-0.8c-4.9,15.8-13.4,31.2-27.1,41.1c-13.3,9.7-31.7,13.5-47.1,6.8c-14.5-6.4-23.7-20.8-27.6-35.7
					c-5.1-19.1-2-39.3,0.9-58.5C913.3,117,910.4,116.2,910.1,118.1L910.1,118.1z"/>
			</g>
		</g>
		<g>
			<g>
				<path class="st1" d="M1014.9,166.8c13.3,1.2,24.9-10.8,24.3-24c-0.5-11.3-13.7-20.8-23.1-11.5c-1.4,1.4,0.8,3.5,2.1,2.1
					c3.8-3.8,10-3.5,14,0c4,3.7,4.7,9.8,3.5,14.9c-2.2,9.4-11.1,16.3-20.7,15.4C1012.9,163.6,1012.9,166.6,1014.9,166.8
					L1014.9,166.8z"/>
			</g>
		</g>
		<g>
			<g>
				<path class="st1" d="M1012.3,168.9c-4,16.7-1.5,34,6.8,48.9c0.9,1.7,3.5,0.2,2.6-1.5c-8-14.2-10.3-30.7-6.5-46.6
					C1015.6,167.8,1012.7,167,1012.3,168.9L1012.3,168.9z"/>
			</g>
		</g>
		<g>
			<g>
				<path class="st1" d="M965.6,217.7c2.9,6.5,5.9,14.2,10.6,19.6c3.8,4.4,9.3,4.2,14.7,3.3c12.7-2.1,23.8-10.2,30-21.4
					c0.9-1.7-1.7-3.2-2.6-1.5c-5.3,9.7-14.5,16.9-25.3,19.5c-6.5,1.6-12.5,1.8-16.4-4.5c-3.2-5.2-5.9-10.8-8.4-16.4
					C967.4,214.4,964.8,215.9,965.6,217.7L965.6,217.7z"/>
			</g>
		</g>
		<g>
			<g>
				<path class="st1" d="M940.9,142.5c-4.8,11-8.3,22.4-10.4,34.3c-0.2,1,0.4,1.8,1.4,1.9c4.8,0.4,14.5,1.7,15.1-4.8
					c0.4-4.9-0.6-10.3-0.9-15.2c-0.4-5.1-0.9-10.1-1.5-15.2c-0.2-1.9-3.2-1.9-3,0c0.8,6.9,1.4,13.9,1.9,20.9
					c0.1,2.1,1.5,7.8,0.5,9.5c-1.7,3.2-9,2.1-12.1,1.8c0.5,0.6,1,1.3,1.4,1.9c2.1-11.6,5.4-22.8,10.1-33.6
					C944.2,142.3,941.6,140.7,940.9,142.5L940.9,142.5z"/>
			</g>
		</g>
		<g>
			<g>
				<path class="st1" d="M921.9,156.2c-1.1-2.8-0.8-5.6,0.8-8.2c-0.9,0-1.7,0-2.6,0c1.9,2.4,1.9,5.8-0.2,8.1
					c0.8,0.1,1.6,0.2,2.4,0.3c-1.4-2.3-1.4-4.9,0.1-7.1c1.1-1.6-1.5-3.1-2.6-1.5c-2,3.1-2.1,7-0.1,10.1c0.5,0.8,1.7,1,2.4,0.3
					c3-3.2,3.4-8.2,0.7-11.7c-0.7-0.9-1.9-1-2.6,0c-2.1,3.1-2.5,7-1.1,10.5C919.7,158.7,922.6,158,921.9,156.2L921.9,156.2z"/>
			</g>
		</g>
		<g>
			<g>
				<path class="st1" d="M964.6,151.1c-1-2.3-0.6-4.7,0.8-6.7c-0.9,0-1.7,0-2.6,0c1.4,2.4,1.6,5,0.6,7.6c0.8-0.2,1.7-0.4,2.5-0.7
					c-0.5-0.4-1-0.8-1.5-1.2c-1.5-1.2-3.6,0.9-2.1,2.1c0.5,0.4,1,0.8,1.5,1.2c0.9,0.7,2.1,0.5,2.5-0.7c1.3-3.3,0.9-6.9-0.9-10
					c-0.6-1-2-0.9-2.6,0c-2,3-2.2,6.5-0.8,9.8C962.8,154.4,965.3,152.9,964.6,151.1L964.6,151.1z"/>
			</g>
		</g>
		<g>
			<g>
				<path class="st1" d="M919.4,126.8c1.4-1.7,3.1-2.9,5.2-3.6c2.3-0.7,7.7-1.2,6.4,2.7c-1.6,5.1-12.4,5.9-10.6-0.7
					c0.5-1.9-2.4-2.7-2.9-0.8c-1,3.6,1.3,7.4,4.9,8.5c4.2,1.2,9.3-1.4,11.1-5.3c1.8-3.9-0.3-7.3-4.4-7.8c-4.5-0.5-9,1.5-11.9,4.9
					C916.1,126.2,918.2,128.3,919.4,126.8L919.4,126.8z"/>
			</g>
		</g>
		<g>
			<g>
				<path class="st1" d="M957.2,124.6c1.5-2,3.7-3.9,6.3-3.9c2.2,0,4.6,1.8,4.3,4.2c-0.8,5.5-13.2,5.1-10.6-0.7
					c0.8-1.7-1.8-3.3-2.6-1.5c-1.7,3.7,0.5,8,4.4,9c3.9,1,9.5-1.1,11.2-4.8c1.7-3.5-0.9-7.6-4.4-8.8c-4.5-1.5-8.8,1.6-11.3,5
					C953.5,124.7,956.1,126.2,957.2,124.6L957.2,124.6z"/>
			</g>
		</g>
		<g>
			<g>
				<path class="st1" d="M906.4,152.2c-19.7-0.2-29.8-23.3-16.3-37.8c0.4-0.5,0.6-1.3,0.2-1.8c-7.6-10.8,0.2-26.6,7.9-35.2
					c9-10.1,23.9-14.7,36.2-7.7c1.7,1,3.2-1.6,1.5-2.6c-13.5-7.7-29.8-3-39.8,8.1c-8.6,9.5-16.7,26.9-8.4,38.9
					c0.1-0.6,0.2-1.2,0.2-1.8c-15.2,16.4-4,42.8,18.4,43C908.4,155.3,908.4,152.3,906.4,152.2L906.4,152.2z"/>
			</g>
		</g>
		<g>
			<g>
				<path class="st1" d="M938.3,69.2c4.3-12.9,17.6-21.7,31.2-20.8c13.7,1,25.4,10.9,30.2,23.5c0.5,1.3,1.9,1.4,2.7,0.4
					c4.9-6.5,14-5.1,17.3,2.1c0.8,1.7,3.4,0.2,2.6-1.5c-4.4-9.5-16.4-10.2-22.5-2.1c0.9,0.1,1.8,0.2,2.7,0.4
					c-5.3-13.8-18-24.7-33.1-25.7c-15-1-29.4,8.8-34.1,23C934.8,70.2,937.7,71,938.3,69.2L938.3,69.2z"/>
			</g>
		</g>
		<g>
			<g>
				<path class="st1" d="M914,117.4c8.4-11.9,20.6-16.9,34.4-20.2c1.9-0.4,1.1-3.3-0.8-2.9c-14.6,3.5-27.3,8.9-36.2,21.6
					C910.3,117.5,912.9,119,914,117.4L914,117.4z"/>
			</g>
		</g>
		<g>
			<g>
				<path class="st1" d="M951.1,84.1c-5.7,6.3-0.5,16.5,4.7,21.4c7.6,7.3,18.6,8.5,28.6,6.6c1.9-0.4,1.1-3.3-0.8-2.9
					c-7.6,1.4-15.9,1-22.5-3.4c-5-3.3-13.3-13.6-7.8-19.7C954.5,84.8,952.4,82.7,951.1,84.1L951.1,84.1z"/>
			</g>
		</g>
		<g>
			<g>
				<path class="st1" d="M982.6,111.4c1.3,8.9,5.2,20.6,13.7,25.3c6.7,3.7,15.1,2,20.3-3.4c1.3-1.4-0.8-3.5-2.1-2.1
					c-5.4,5.6-14.2,6-19.8,0.5c-5.5-5.4-8.1-13.7-9.2-21.1C985.2,108.7,982.3,109.5,982.6,111.4L982.6,111.4z"/>
			</g>
		</g>
		<g>
			<g>
				<path class="st1" d="M1022,76c9.2-4.1,21-3.1,28.3,4.4c6.9,7.1,7.9,18.5,2.2,26.6c-1.1,1.6,1.5,3.1,2.6,1.5
					c6.5-9.1,5.2-22.2-2.6-30.2c-8.3-8.5-21.4-9.5-31.9-4.8C1018.7,74.2,1020.2,76.7,1022,76L1022,76z"/>
			</g>
		</g>
		<g>
			<g>
				<path class="st1" d="M1013.1,180.9c14.8,8.1,30.9-4.5,38.9-16.5c6.7-10.2,15.6-34-0.8-40c0.1,0.9,0.2,1.8,0.4,2.7
					c6-4.5,7.9-12.1,4.7-19c-0.8-1.7-3.4-0.2-2.6,1.5c2.4,5.2,1,11.4-3.6,14.9c-1,0.8-0.9,2.3,0.4,2.7c22.1,8.1-10,65.3-35.8,51.1
					C1012.9,177.3,1011.4,179.9,1013.1,180.9L1013.1,180.9z"/>
			</g>
		</g>
	</g>
</g>
<g id="tab_2">
	<path class="st3" d="M240.7,109c0.4,6.5,0.9,15.2,1.6,25.5c1.5,22,3.9,49.9,7.7,82.1c3.2,27,7.4,57.5,13.2,90.9
		c8.4,1.7,19.7,3.6,33,5.2c6.7,0.8,31.6,3.5,69.6,2.1c34.4-1.2,58.5-2.1,89.3-11.1c17-5,30.5-10.8,39.5-15.2
		c-2.1-11.2-4.5-25.1-7-41.1c-2.5-16-5.7-39.3-8.6-67.6c-2.5-25-4.8-54.9-6-88.7c-9.7-0.6-22.9-1.3-38.6-1.7
		c-40-1.1-42.7,1.2-96.6,1.9c-39.4,0.6-56.9-0.4-81.3,9.8C249.8,104.1,244.3,107,240.7,109z"/>
	<g>
		<g>
			<path class="st1" d="M239.2,109c3.7,66.7,11.2,133.1,22.5,198.9c0.3,1.9,3.2,1.1,2.9-0.8c-11.3-65.5-18.8-131.7-22.4-198.1
				C242.1,107.1,239.1,107.1,239.2,109L239.2,109z"/>
		</g>
	</g>
	<g>
		<g>
			<path class="st1" d="M243.8,109.3c17.2-8.2,36.6-10.2,55.3-12.5c18.8-2.3,37.7-4,56.6-5c38.5-2.1,77.1-1.6,115.6,1.4
				c1.9,0.2,1.9-2.8,0-3c-39.8-3.1-79.7-3.6-119.5-1.2c-19.6,1.2-39.1,3-58.6,5.5c-17.4,2.2-35,4.6-51,12.2
				C240.6,107.5,242.1,110.1,243.8,109.3L243.8,109.3z"/>
		</g>
	</g>
	<g>
		<g>
			<path class="st1" d="M471.6,91.2c2.3,66.2,9.5,132.1,21.5,197.3c0.3,1.9,3.2,1.1,2.9-0.8c-12-64.9-19.1-130.5-21.4-196.5
				C474.5,89.3,471.5,89.3,471.6,91.2L471.6,91.2z"/>
		</g>
	</g>
	<g>
		<g>
			<path class="st1" d="M264.4,310.1c63.1,10.1,127.9,8.6,190.4-4.8c8.7-1.8,17.4-3.7,25.9-6.3c6-1.8,11.6-4.4,15.2-9.7
				c1.1-1.6-1.5-3.1-2.6-1.5c-5.3,8-16.8,9.4-25.4,11.5c-9.2,2.2-18.5,4.2-27.8,5.9c-19.2,3.5-38.5,6-58,7.3
				c-39,2.7-78.3,0.9-116.9-5.3C263.3,306.9,262.5,309.8,264.4,310.1L264.4,310.1z"/>
		</g>
	</g>
	<g>
		<g>
			<path class="st1" d="M273.4,130c0.9,47.2,5.7,94.2,14.1,140.7c0.3,1.9,3.2,1.1,2.9-0.8c-8.4-46.2-13.1-93-14-139.9
				C276.4,128.1,273.4,128.1,273.4,130L273.4,130z"/>
		</g>
	</g>
	<g>
		<g>
			<path class="st1" d="M275.1,130.8c53.5-6.7,107.3-10.7,161.2-12.1c1.9,0,1.9-3,0-3c-53.9,1.4-107.7,5.4-161.2,12.1
				C273.2,128,273.2,131,275.1,130.8L275.1,130.8z"/>
		</g>
	</g>
	<g>
		<g>
			<path class="st1" d="M290.6,271.6c51.5,0.6,103-2.7,154-9.8c1.9-0.3,1.1-3.2-0.8-2.9c-50.7,7.1-102,10.3-153.2,9.7
				C288.6,268.6,288.6,271.6,290.6,271.6L290.6,271.6z"/>
		</g>
	</g>
	<g>
		<g>
			<path class="st1" d="M435.8,116.8c3.9,47.8,7.9,95.5,11.8,143.3c0.5-0.5,1-1,1.5-1.5c-1.6-0.1-3.2-0.2-4.9-0.2
				c-1.9-0.1-1.9,2.9,0,3c1.6,0.1,3.2,0.2,4.9,0.2c0.8,0,1.6-0.7,1.5-1.5c-3.9-47.8-7.9-95.5-11.8-143.3
				C438.7,114.9,435.6,114.9,435.8,116.8L435.8,116.8z"/>
		</g>
	</g>
	<g>
		<g>
			<path class="st1" d="M318.3,127.6c3.8,41.7,7.6,83.4,11.4,125.1c0.2,1.9,3.2,1.9,3,0c-3.8-41.7-7.6-83.4-11.4-125.1
				C321.1,125.7,318.1,125.7,318.3,127.6L318.3,127.6z"/>
		</g>
	</g>
	<g>
		<g>
			<path class="st1" d="M365.1,125c3.5,41.2,6.2,82.4,8,123.7c0.1,1.9,3.1,1.9,3,0c-1.8-41.3-4.5-82.5-8-123.7
				C367.9,123.1,364.9,123.1,365.1,125L365.1,125z"/>
		</g>
	</g>
	<g>
		<g>
			<path class="st1" d="M405.5,132.4c2.2,39.5,5.7,79,10.4,118.3c0.2,1.9,3.2,1.9,3,0c-4.7-39.3-8.2-78.7-10.4-118.3
				C408.4,130.4,405.4,130.4,405.5,132.4L405.5,132.4z"/>
		</g>
	</g>
	<g>
		<g>
			<path class="st1" d="M290.5,180.2c47-3.9,94.1-7.9,141.1-11.8c1.9-0.2,1.9-3.2,0-3c-47,3.9-94.1,7.9-141.1,11.8
				C288.5,177.3,288.5,180.3,290.5,180.2L290.5,180.2z"/>
		</g>
	</g>
	<g>
		<g>
			<path class="st1" d="M291.8,232.2c47.7-2.3,95.5-4.6,143.2-6.9c1.9-0.1,1.9-3.1,0-3c-47.7,2.3-95.5,4.6-143.2,6.9
				C289.9,229.3,289.9,232.3,291.8,232.2L291.8,232.2z"/>
		</g>
	</g>
	<g>
		<g>
			<path class="st1" d="M299.9,239.4c0.5-0.8,0.9-1.6,1.4-2.5c-0.9-0.4-1.8-0.8-2.7-1.2c-2.6,6.3-5.3,12.5-7.9,18.8
				c-0.6,1.3,1.2,2.2,2.2,1.7c7.4-3.4,10.5-11.7,17.5-15.5c-0.7-0.6-1.5-1.1-2.2-1.7c-2.5,6.7-5,13.4-7.5,20.2
				c-0.4,1,0.8,2.2,1.8,1.8c5.7-2.2,7.9-9.6,13.8-10.9c-0.6-0.5-1.3-1-1.9-1.4c-0.5,4.4-1,8.9-1.5,13.3c-0.2,1.9,2.8,1.9,3,0
				c0.5-4.4,1-8.9,1.5-13.3c0.1-1-1-1.6-1.9-1.4c-6.4,1.3-8,8.6-13.8,10.9c0.6,0.6,1.2,1.2,1.8,1.8c2.5-6.7,5-13.4,7.5-20.2
				c0.5-1.3-1.1-2.3-2.2-1.7c-7.1,3.8-10.2,12.1-17.5,15.5c0.7,0.6,1.5,1.1,2.2,1.7c2.6-6.3,5.3-12.5,7.9-18.8
				c0.7-1.6-1.9-2.6-2.7-1.2c-0.5,0.8-0.9,1.6-1.4,2.5C296.4,239.5,298.9,241.1,299.9,239.4L299.9,239.4z"/>
		</g>
	</g>
	<g>
		<g>
			<path class="st1" d="M329.9,188.6c2.7-2.9,5.5-5.7,8.2-8.6c-0.8-0.5-1.7-1-2.5-1.5c-2.8,7.4-5.5,14.8-8.2,22.2
				c-0.5,1.3,1.1,2.3,2.2,1.7c8.5-5.1,11.2-15.5,19.4-20.8c-0.7-0.7-1.4-1.4-2.1-2.1c-2.8,6-5.7,11.9-8.5,17.9
				c-2,4.3-4.9,8.7-4.5,13.6c0.1,1.1,1.7,2.2,2.6,1.1c2.9-3.8,5.8-7.5,8.7-11.3c2.6-3.4,5.9-9.7,10.1-11.4c-0.6-0.6-1.2-1.2-1.8-1.8
				c-3.5,9-6.6,18.1-9.2,27.4c-0.3,1,0.5,1.8,1.4,1.9c6.3,0.5,11.5-8.7,15.1-12.7c-0.8-0.5-1.7-1-2.5-1.5c-1.3,5.2-2.6,10.5-4,15.7
				c-0.5,1.9,2.4,2.7,2.9,0.8c1.3-5.2,2.6-10.5,4-15.7c0.3-1.4-1.5-2.6-2.5-1.5c-2.6,3-8.4,12.2-13,11.8c0.5,0.6,1,1.3,1.4,1.9
				c2.6-9.3,5.7-18.4,9.2-27.4c0.4-1-0.8-2.2-1.8-1.8c-4.2,1.6-6.4,5.7-9.1,9.2c-3.7,4.8-7.4,9.5-11,14.3c0.9,0.4,1.7,0.7,2.6,1.1
				c-0.5-5.3,3.5-11,5.8-15.7c2.3-4.8,4.5-9.5,6.8-14.3c0.6-1.3-0.7-2.9-2.1-2.1c-8.2,5.3-11,15.8-19.4,20.8
				c0.7,0.6,1.5,1.1,2.2,1.7c2.7-7.4,5.4-14.8,8.2-22.2c0.5-1.4-1.5-2.5-2.5-1.5c-2.7,2.9-5.5,5.7-8.2,8.6
				C326.5,187.8,328.6,190,329.9,188.6L329.9,188.6z"/>
		</g>
	</g>
	<g>
		<g>
			<path class="st1" d="M378.3,125.4c-3,8.1-6,16.1-9,24.2c-0.4,1,0.8,2.3,1.8,1.8c8.5-3.4,11.4-12.7,19-17.2
				c-0.7-0.6-1.5-1.1-2.2-1.7c-3.4,8.3-7.1,16.5-11.2,24.6c-0.5,1.1,0.1,2.2,1.3,2.3c3.4,0.3,5.3-3.2,7.3-5.5
				c3.7-4.2,7.3-8.4,11-12.6c-0.8-0.5-1.7-1-2.5-1.5c-1.7,4.1-3.4,8.2-5,12.4c-1,2.6-1.6,4.7-0.1,7.1c0.5,0.8,1.6,1,2.4,0.3
				c2.7-2.4,5.3-5,7.7-7.7c-0.9-0.4-1.7-0.7-2.6-1.1c-0.3,3.5-0.6,6.9-1,10.4c-0.2,1.9,2.8,1.9,3,0c0.3-3.5,0.6-6.9,1-10.4
				c0.1-1.3-1.7-2-2.6-1.1c-2.4,2.7-5,5.2-7.7,7.7c0.8,0.1,1.6,0.2,2.4,0.3c-1.5-2.4,1.2-6.7,2.1-8.9c1.1-2.7,2.2-5.5,3.4-8.2
				c0.6-1.4-1.6-2.5-2.5-1.5c-2.6,3-5.2,5.9-7.8,8.9c-1.5,1.7-5.9,8.6-8.5,8.3c0.4,0.8,0.9,1.5,1.3,2.3c4.1-8.3,8-16.7,11.5-25.3
				c0.5-1.3-1.2-2.3-2.2-1.7c-7.3,4.3-10.3,13.7-18.3,16.9c0.6,0.6,1.2,1.2,1.8,1.8c3-8.1,6-16.1,9-24.2
				C381.8,124.4,378.9,123.6,378.3,125.4L378.3,125.4z"/>
		</g>
	</g>
	<g>
		<g>
			<path class="st1" d="M283.8,134.2c1.1-0.9,2.3-1.7,3.4-2.6c-0.8-0.4-1.5-0.9-2.3-1.3c-0.3,9-6.1,16.6-6.7,25.6
				c-0.1,1,1,1.7,1.9,1.4c4.1-1.2,6.6-5.9,9.2-9c3.8-4.5,7.5-9.1,11.3-13.6c-0.8-0.5-1.7-1-2.5-1.5c-2.4,5.6-4.7,11.2-7.1,16.8
				c-1.5,3.5-4.5,7.8-2.9,11.7c0.3,0.8,1.3,1.5,2.2,0.9c7.7-5.2,11.4-14.3,19.1-19.5c-0.7-0.6-1.5-1.1-2.2-1.7
				c-1.7,4.8-3.3,9.6-5,14.5c-1.1,3.3-2.2,6.2-1.1,9.6c0.3,0.8,1.4,1.5,2.2,0.9c1.2-0.9,2.4-1.8,3.7-2.7c0.4-0.3,0.8-0.6,1.2-0.9
				c1.2-1.3,2.5-1.4,4.1-0.3c-0.9,1.7,1.6,3.2,2.6,1.5c1.1-2,0.5-4.4-1.7-5.4c-4-1.8-8.5,3.1-11.4,5.2c0.7,0.3,1.5,0.6,2.2,0.9
				c-1.2-3.8,1.2-8,2.4-11.6c1.2-3.6,2.5-7.2,3.7-10.8c0.4-1.2-1.1-2.4-2.2-1.7c-7.8,5.1-11.4,14.3-19.1,19.5
				c0.7,0.3,1.5,0.6,2.2,0.9c-1.5-3.6,3-10.3,4.4-13.6c1.9-4.4,3.7-8.9,5.6-13.3c0.6-1.4-1.6-2.6-2.5-1.5c-3,3.6-5.9,7.2-8.9,10.7
				c-2.5,3-6.4,10-10.2,11.1c0.6,0.5,1.3,1,1.9,1.4c0.5-9,6.3-16.6,6.7-25.6c0-1-1.3-2-2.3-1.3c-1.1,0.9-2.3,1.7-3.4,2.6
				C280.7,132.8,282.2,135.4,283.8,134.2L283.8,134.2z"/>
		</g>
	</g>
	<g>
		<g>
			<path class="st1" d="M379.4,232.2c-1.7,4.7-3.2,9.4-4.5,14.2c-0.2,0.7,0.2,1.7,1,1.8c2.9,0.6,4.4-2,6.1-4.1
				c3.6-4.2,7.1-8.4,10.7-12.5c-0.8-0.6-1.6-1.2-2.4-1.8c-3.2,7.3-6.3,14.5-9.5,21.8c-0.4,1,0,2.3,1.3,2.3c3.8-0.2,6-3.9,8.2-6.7
				c3.3-4.1,6.3-8.3,10.6-11.5c-0.7-0.6-1.5-1.1-2.2-1.7c-1.7,4.9-3.4,9.8-5,14.7c-0.5,1.5-1.5,3.5-0.1,4.8c1.1,1.1,2.5,0.7,3.7,0
				c3.8-2.2,7.1-7.4,10-10.6c-0.9-0.4-1.7-0.7-2.6-1.1c0.4,4.9,0,9.6-1.3,14.3c-0.5,1.9,2.4,2.7,2.9,0.8c1.3-5,1.8-10,1.4-15.1
				c-0.1-1.2-1.6-2.1-2.6-1.1c-1.7,1.9-3.5,3.8-5.2,5.7c-0.9,0.9-1.9,1.8-2.6,2.8c-0.7,1-1.4,2.9-1,1.1c1.2-5.3,3.5-10.5,5.3-15.6
				c0.4-1.2-1.2-2.5-2.2-1.7c-3,2.2-5.5,4.8-7.8,7.7c-1.9,2.4-6.1,9.8-9.5,10c0.4,0.8,0.9,1.5,1.3,2.3c3.2-7.3,6.3-14.5,9.5-21.8
				c0.6-1.4-1.1-3.2-2.4-1.8c-2.4,2.8-4.8,5.6-7.1,8.4c-0.8,0.9-5.5,7.7-6.8,7.5c0.3,0.6,0.7,1.2,1,1.8c1.3-4.8,2.7-9.5,4.5-14.2
				C383,231.2,380.1,230.4,379.4,232.2L379.4,232.2z"/>
		</g>
	</g>
</g>
<g id="tab_1">
	<path class="st4" d="M392,210.8c0.6,10.1,1.9,26.6,4.6,46.7c6.9,52.3,16.1,76.3,25.3,131.7c2.2,13.5,5.4,33.9,7.9,59.3
		c39.5,2.3,73.5,2.3,100.4,1.5c17.6-0.5,45.5-1.4,82.2-5.5c31.9-3.6,59.3-8.3,81.2-12.8c-5.4-17.3-10.5-35.2-15.3-53.7
		c-17.1-66-26.9-128.2-32.1-184.9c-8.5-0.2-19.7-0.5-32.9-0.5c-42.2-0.1-74.2,1.8-84,2.5c-36.9,2.4-64.9,5.9-90.3,9.2
		C420,206.5,403.9,208.9,392,210.8z"/>
	<g>
		<g>
			<path class="st1" d="M388.4,211.8c10.7,78.1,24.3,155.8,40.7,232.9c0.4,1.9,3.3,1.1,2.9-0.8c-16.4-77.1-30-154.8-40.7-232.9
				C391,209.1,388.2,209.9,388.4,211.8L388.4,211.8z"/>
		</g>
	</g>
	<g>
		<g>
			<path class="st1" d="M392.4,212.2c83.2-14.1,167.6-20,252-17.8c1.9,0.1,1.9-2.9,0-3c-66.1-1.8-132.3,1.5-198,9.8
				c-18.3,2.3-36.6,5-54.8,8.1C389.7,209.6,390.5,212.5,392.4,212.2L392.4,212.2z"/>
		</g>
	</g>
	<g>
		<g>
			<path class="st1" d="M644.6,193c7.4,81.1,23.3,161.3,47.4,239c0.6,1.8,3.5,1.1,2.9-0.8c-24.1-77.5-40-157.4-47.3-238.2
				C647.5,191.1,644.5,191.1,644.6,193L644.6,193z"/>
		</g>
	</g>
	<g>
		<g>
			<path class="st1" d="M429.8,449.9c68.9,4.1,138.1,1.8,206.6-6.8c18.9-2.4,37.7-5.3,56.4-8.6c1.9-0.3,1.1-3.2-0.8-2.9
				c-67.5,12-136,17.8-204.6,17.3c-19.2-0.2-38.4-0.8-57.6-1.9C427.9,446.8,427.9,449.8,429.8,449.9L429.8,449.9z"/>
		</g>
	</g>
	<g>
		<g>
			<path class="st1" d="M448,292.1c-10.4-9.4-13.3-24.8-5.8-36.9c7.3-11.9,24.8-18.8,36.7-9.2c11.3,9,13.7,30.5,5.3,41.9
				c-9,12.2-26.4,13.5-37.6,3.5c-1.4-1.3-3.6,0.8-2.1,2.1c9.1,8.1,22.6,10.3,33.3,4.1c11.7-6.7,15.9-19.7,13.7-32.5
				c-2.2-12.7-8.9-24.7-22.8-26.3c-12.7-1.5-24.9,6.2-30.5,17.5c-6.4,12.9-2.8,28.5,7.7,38C447.3,295.5,449.4,293.4,448,292.1
				L448,292.1z"/>
		</g>
	</g>
	<g>
		<g>
			<path class="st1" d="M471.6,299.2c6.3,16.6,6.9,34.4,1.6,51.4c-0.6,1.8,2.3,2.6,2.9,0.8c5.4-17.4,4.9-35.9-1.6-53
				C473.8,296.7,470.9,297.4,471.6,299.2L471.6,299.2z"/>
		</g>
	</g>
	<g>
		<g>
			<path class="st1" d="M487.3,250c13.9-14.5,31-25.2,50-31.4c1.8-0.6,1-3.5-0.8-2.9c-19.6,6.3-37.1,17.3-51.4,32.1
				C483.8,249.3,485.9,251.4,487.3,250L487.3,250z"/>
		</g>
	</g>
	<g>
		<g>
			<path class="st1" d="M466.4,401.4c-9.1-9.5-11.3-23.8-4.3-35.1c3.2-5.1,8.3-10.1,14.3-11.6c6.8-1.7,13.5,1.8,18.3,6.3
				c9.8,9,13.2,23,3.8,33.7c-7.8,8.9-23.7,12.7-33.7,5.5c-1.6-1.1-3.1,1.5-1.5,2.6c18.8,13.6,48.7-5.9,43.4-28.5
				c-2.4-10.5-13-21-23.7-22.7c-11-1.8-20.9,7.1-25.2,16.5c-5.6,12.1-2.6,26,6.5,35.5C465.6,404.9,467.8,402.8,466.4,401.4
				L466.4,401.4z"/>
		</g>
	</g>
	<g>
		<g>
			<path class="st1" d="M505.3,391c18.9-12.5,42.5-15.7,63.9-8.6c1.8,0.6,2.6-2.3,0.8-2.9c-22.2-7.3-46.8-4-66.3,8.9
				C502.2,389.5,503.7,392.1,505.3,391L505.3,391z"/>
		</g>
	</g>
	<g>
		<g>
			<path class="st1" d="M500.7,362.2c2.2-10.5,6.8-20.1,13.8-28.4c1.2-1.5-0.9-3.6-2.1-2.1c-7.3,8.7-12.2,18.7-14.5,29.7
				C497.4,363.3,500.3,364.1,500.7,362.2L500.7,362.2z"/>
		</g>
	</g>
	<g>
		<g>
			<path class="st1" d="M533.5,268.2c13.2-7.5,28-10.9,43.1-9.8c1.9,0.1,1.9-2.9,0-3c-15.6-1.1-31,2.5-44.6,10.2
				C530.3,266.6,531.8,269.2,533.5,268.2L533.5,268.2z"/>
		</g>
	</g>
</g>
<g id="lines">
	<g>
		<g>
			<path class="st5" d="M303.9,895.3c-23.6,2.1-45.3-14-58.2-32.5c-11.9-17-18.4-37.7-19.1-58.5c-0.9-25.1,5.9-50,16.6-72.5
				c9.8-20.7,22.7-40.3,38.6-56.7c31.5-32.5,82.2-53,125.3-30.3c39.6,20.9,55.9,73.1,38.1,113.6c-8.9,20.2-26.4,36-47.8,41.8
				c-21,5.7-42.7-0.2-59.2-13.9c-37.6-31-38-83.1-23.7-126c7.3-21.9,17.6-44.3,34.7-60.4c15.6-14.7,36-22.7,56.9-26.1
				c47.5-7.8,94,7.4,140.8,12.7c23.4,2.7,47,2.5,69.9-3.2c20.6-5.1,40.3-14,57.8-26.2c35.4-24.8,60.2-62.8,69.1-105
				c2.2-10.3,3.4-20.9,3.6-31.4c0-1.9-3-1.9-3,0c-1.2,49.1-24.1,96.5-62.5,127.3c-19,15.2-41.3,26.3-64.9,32.2
				c-26,6.5-52.6,5.8-79,2.1c-47.8-6.7-96.2-21.2-144.4-9c-21,5.3-40.4,16.1-54.3,33c-15,18.1-24.5,41.1-30.6,63.6
				c-11.8,42.9-6.9,93.2,31.3,121.4c16.2,12,36.5,17,56.3,12.4c20.9-4.9,38.9-19.2,49-38c20.6-38.1,9.8-88.9-24.2-115.5
				c-37.2-29.1-89.6-19.1-124.6,8.1c-17.7,13.7-32,31.4-43.7,50.4c-13.3,21.6-23.6,45.7-27.3,70.9c-6.2,41.8,8.3,90.4,47.6,111.6
				c9.6,5.2,20.3,8.1,31.3,7.1C305.8,898.1,305.8,895.1,303.9,895.3L303.9,895.3z"/>
		</g>
	</g>
	<g>
		<g>
			<path class="st5" d="M758.5,329.2c9.9-64.5,25.2-133.3,74.8-179.8c12.5-11.7,26.8-21.3,42.5-28c1.8-0.8,0.2-3.3-1.5-2.6
				c-60.3,25.9-92.1,88.2-107.1,148.8c-5,20.1-8.5,40.4-11.6,60.8C755.3,330.3,758.2,331.1,758.5,329.2L758.5,329.2z"/>
		</g>
	</g>
	<g>
		<g>
			<path class="st5" d="M1084.6,93.6c35-19.6,80.3-2.7,103.2,27.7c27.9,37,25.9,89.2,12.4,131.2c-3.7,11.7-8.8,23.2-17.2,32.3
				c-7.5,8.1-17.3,13.7-27.6,17.6c-20.6,7.7-43,9.9-64.2,15.6c-23.6,6.3-46.5,15.1-68.3,26.1c-18.6,9.4-38.8,20.5-50.2,38.7
				c-20,31.8,2,78.7,39.3,83.9c1.9,0.3,2.7-2.6,0.8-2.9c-18.6-2.6-33.6-16.3-40.7-33.4c-7.6-18.5-4.5-38.1,8.5-53.3
				c15.4-17.9,39.1-28.8,60.2-38.2c23-10.2,47.2-17.8,71.8-22.8c20.4-4.2,42.1-7.3,59.9-18.8c18.7-12,27.4-32.1,33-52.8
				c11.2-41,11.2-90.1-15.7-125.3c-24-31.4-70.6-48.6-106.9-28.3C1081.4,92,1083,94.6,1084.6,93.6L1084.6,93.6z"/>
		</g>
	</g>
	<g>
		<g>
			<path class="st5" d="M1106.5,479.9c39,7.1,72,36.9,84.7,74.2c13.9,40.6-0.5,83.7-27.4,115.4c-30.1,35.3-73.2,54.6-117.4,65.8
				c-23.2,5.9-46.9,9.6-70.5,13.1c-23.1,3.4-46.9,7.3-67.2,19.5c-17.4,10.5-32.8,27.4-35.2,48.3c-2.1,18.7,6.2,39.1,23.8,47.5
				c1.7,0.8,3.3-1.8,1.5-2.6c-18.1-8.7-25.8-30.8-21.4-49.8c4.9-21.3,23.1-37.1,42.2-45.9c22.6-10.4,48-12.8,72.3-16.5
				c23.8-3.7,47.5-8.1,70.6-15c41.7-12.4,81.2-33.5,108.3-68.3c23.8-30.7,36.1-70.9,24.5-109c-12.1-39.8-46.7-72.2-87.9-79.7
				C1105.4,476.6,1104.6,479.5,1106.5,479.9L1106.5,479.9z"/>
		</g>
	</g>
	<g>
		<g>
			<path class="st5" d="M1019.3,834.8c10.9-16.4,30.9-23.3,49.8-24.9c22.4-1.8,44.9,2.3,67.3-0.5c34.3-4.3,66.5-22.9,87.9-49.9
				c5.3-6.6,9.9-13.8,13.8-21.3c3.1-6,6.9-14.4,2.2-20.6c-9.3-12.2-29.6,2.3-36,10.6c-9.3,12.2-9.9,29.1-0.6,41.5
				c11.2,15,30.3,14.1,45.9,7.3c10.8-4.7,20.4-11.6,30.2-18c9.9-6.4,19.9-12.6,30.3-18.1c21.7-11.5,45.2-19.6,70-18.6
				c1.9,0.1,1.9-2.9,0-3c-37.2-1.6-70.8,17-101.1,36.6c-15.2,9.9-32.2,23.7-51.4,23c-19.1-0.6-31.9-20.1-26.6-38.1
				c2.4-8.2,8.2-15.3,15.4-19.8c7-4.4,24.3-9.2,22.8,5c-0.8,8-6.5,16.1-10.9,22.7c-4.7,7.1-10.1,13.6-16,19.6
				c-23.4,23.5-55.2,37.9-88.4,39c-35.6,1.1-83.8-9.6-107.3,25.9C1015.6,834.9,1018.2,836.4,1019.3,834.8L1019.3,834.8z"/>
		</g>
	</g>
</g>
</svg>
